/* XPM */
static char *_920b0e712914ea6adf0a00e2c4cdd46jQzpozbWe2NFJyMR[] = {
/* columns rows colors chars-per-pixel */
"64 64 241 2 ",
"   c None",
".  c #4B050A",
"X  c #470308",
"o  c #550206",
"O  c #5B0303",
"+  c #590707",
"@  c #5B180D",
"#  c #620C03",
"$  c #660707",
"%  c #6B1505",
"&  c #6D1A04",
"*  c #671609",
"=  c #731C06",
"-  c #751809",
";  c #6F120D",
":  c #5C2417",
">  c #6A230D",
",  c #742106",
"<  c #762209",
"1  c #7B2409",
"2  c #7D2A0A",
"3  c #7A2706",
"4  c #7D3109",
"5  c #66271E",
"6  c #762411",
"7  c #773319",
"8  c #6F301E",
"9  c #86170B",
"0  c #83240A",
"q  c #842C0C",
"w  c #8B2C0C",
"e  c #812504",
"r  c #8B330D",
"t  c #8D3E0F",
"y  c #853809",
"u  c #93390E",
"i  c #872710",
"p  c #893813",
"a  c #933411",
"s  c #953B11",
"d  c #9B3C13",
"f  c #823F22",
"g  c #8D440D",
"h  c #80430A",
"j  c #94450A",
"k  c #8A4713",
"l  c #934312",
"z  c #9C4313",
"x  c #9B4C13",
"c  c #984A18",
"v  c #9C5817",
"b  c #975604",
"n  c #A34B06",
"m  c #A4570B",
"M  c #A24514",
"N  c #A34B14",
"B  c #A94E14",
"V  c #A35414",
"C  c #AB5315",
"Z  c #A25B14",
"A  c #AB5B14",
"S  c #A2501B",
"D  c #B15515",
"F  c #B45A15",
"G  c #B85C16",
"H  c #B2550C",
"J  c #936014",
"K  c #A96707",
"L  c #B5680C",
"P  c #BC740B",
"I  c #BE7B0C",
"U  c #B87806",
"Y  c #AC6214",
"T  c #A86516",
"R  c #B36314",
"E  c #B96414",
"W  c #B46C14",
"Q  c #BB6A12",
"!  c #B67114",
"~  c #BC7411",
"^  c #BA7A14",
"/  c #AE7808",
"(  c #8D5227",
")  c #AA5B22",
"_  c #A95E32",
"`  c #9B6126",
"'  c #AF732C",
"]  c #C5690B",
"[  c #C37D05",
"{  c #C37C0C",
"}  c #C1740A",
"|  c #C27D11",
" . c #C67A16",
".. c #CA6F0D",
"X. c #B07746",
"o. c #BB8508",
"O. c #BC8114",
"+. c #B6832B",
"@. c #BD8931",
"#. c #C68305",
"$. c #CA8604",
"%. c #C48B04",
"&. c #CC8B04",
"*. c #C5830A",
"=. c #C4890D",
"-. c #CA8B0A",
";. c #CB8309",
":. c #D28F01",
">. c #CD9303",
",. c #CC920C",
"<. c #CD9A06",
"1. c #D39401",
"2. c #D49B02",
"3. c #DA9D01",
"4. c #D39B0D",
"5. c #C78817",
"6. c #C99215",
"7. c #D59D19",
"8. c #D4A405",
"9. c #DBA301",
"0. c #DCAB02",
"q. c #DDAE0B",
"w. c #D9A808",
"e. c #DEB30B",
"r. c #DCB302",
"t. c #DAAA17",
"y. c #DEB416",
"u. c #CEA019",
"i. c #E3AC02",
"p. c #E2AB08",
"a. c #E4B200",
"s. c #E5BA01",
"d. c #E3B30A",
"f. c #E9BC07",
"g. c #E2B514",
"h. c #E7BB18",
"j. c #E1AB12",
"k. c #CD9E28",
"l. c #D2952A",
"z. c #CD932F",
"x. c #DAA925",
"c. c #DAB525",
"v. c #DCB437",
"b. c #D4A62F",
"n. c #E4B926",
"m. c #E2BC3E",
"M. c #E7C302",
"N. c #E9C709",
"B. c #F1D30B",
"V. c #E7C313",
"C. c #EBC615",
"Z. c #EDCB18",
"A. c #EED217",
"S. c #F2D71B",
"D. c #FBE414",
"F. c #E8C728",
"G. c #F2CC2B",
"H. c #EED229",
"J. c #F4DB24",
"K. c #F6DE2B",
"L. c #F5D529",
"P. c #EACA39",
"I. c #F5D836",
"U. c #EDD235",
"Y. c #F6E425",
"T. c #F8E729",
"R. c #FAE433",
"E. c #F7ED33",
"W. c #F9E736",
"Q. c #FBF139",
"!. c #FDF529",
"~. c #BE9A58",
"^. c #B98750",
"/. c #B99262",
"(. c #C4944C",
"). c #D8B252",
"_. c #E7BD4D",
"`. c #D6B667",
"'. c #D7B879",
"]. c #CDAC64",
"[. c #E9CC46",
"{. c #F4DA47",
"}. c #EBD35A",
"|. c #F3DD59",
" X c #EDCD52",
".X c #FBED4B",
"XX c #F8E847",
"oX c #FAF048",
"OX c #F6EC55",
"+X c #FCEE53",
"@X c #F6ED5C",
"#X c #FBEC5C",
"$X c #F7E458",
"%X c #FBF154",
"&X c #F9F259",
"*X c #E6C867",
"=X c #ECD46F",
"-X c #F3DC63",
";X c #E6D274",
":X c #F1DD73",
">X c #F6ED63",
",X c #FBEB63",
"<X c #F7EA68",
"1X c #FCF264",
"2X c #FDF26B",
"3X c #FBF766",
"4X c #F7EE74",
"5X c #F9ED78",
"6X c #F7F17B",
"7X c #F9F27B",
"8X c #FCF676",
"9X c #CFB78C",
"0X c #EAD387",
"qX c #F3E588",
"wX c #F9F384",
"eX c #F8F28D",
"rX c #FAF588",
"tX c #F4EB95",
"yX c #F9F393",
"uX c #FEFD93",
"iX c #F9F49B",
"pX c #F7F294",
"aX c #EAD4A2",
"sX c #E1CFA5",
"dX c #F3E7A4",
"fX c #F9F5A3",
"gX c #FDFCA4",
"hX c #FAF5AB",
"jX c #FEFBAC",
"kX c #F7ECB5",
"lX c #FEFBB4",
"zX c #FEFCBB",
"xX c #FAF6B7",
"cX c #FCFBC4",
"vX c #FCFACA",
"bX c #FAF5C4",
"nX c #FCF5D9",
"mX c #F8EDCE",
"MX c #FDFBE7",
"NX c #FFFFFE",
"BX c #FDFDF3",
/* pixels */
"                                                                                                                                ",
"                                                                                                                                ",
"                                                                                                                                ",
"                                                                                                                                ",
"                                                                                                                                ",
"                                                                                                                                ",
"                                                                                                                                ",
"                                                                                                                                ",
"                                                                                                                                ",
"                                                                                                                                ",
"                                                                                                                                ",
"                                                                                                                                ",
"                                                                                                                                ",
"                                                                                                                                ",
"                                                                                                                                ",
"                                                                                                                                ",
"                        ,X<X|.[.v.c.P._.~.`.=X:X:X*X].~.~.`. XdXkXsX9X9X9X'.`.].].`.`._._._.}.<X<X,X,X                          ",
"                    vX8X,X%XY.M.0.0.p.3.y , P i.1.n = y / 2.3.p.i.y.' 7 + O e r n L ] ....] 2.D.oX#X1X7X                        ",
"                  gX&XOX&X>XXXA.a.9.3.3.;.x W h.t.).v.j.3.1.-.-.1.9.C.P.`./._ | x.G G ] E { V.E.@X2X#X%X3X                      ",
"                mXgXQ.>X4X6XOXH.0.2.3.j.7.l.aXnXkX X3.;.{ } ~ } { ;.$.1.C.$XkXdX) a N F ] 9.Y.OX6XwX4X@XE.zX                    ",
"               XcXhX@XwXeX7X<X{.n.j.w.w.j.h.qXbXy.P R A B M M N C Y A  .P #.9.l.G B B L :.C.XX4XeXpXrXwXOXcXgX                  ",
"            n.%XxXxX6XpXiXiXpXwX-X Xn.f.B.a.9.g.e.5.a w i 9 9 9 a r V r a -.$.1.x.$.i.x.g.Y.2XeXpXpXyXeX4XvXfXoX                ",
"          n.R.&XhXzXwXiXfXlXxXhX$XC.s.s.f.2.-.2.1.d.x.S w - $ $ r l g v q.2.&.p.4Xx.s.2XpX6XwXpXeXpXpXyXwXvXpX&XT.P.            ",
"        XXY.oX2XfXbXpXfXhXzXeX.XT.B.s.a.0.P ~ ;.$.1.j.[.).A & 2 +.@.k.g.3.&.2.U.yXdXH.wXfXhXfXiXiXpXeXpXpXvXiX>XQ.L.+X          ",
"    vX8XW.E.@XwXfXvXpXxXhX&XoXOX1X.XA.s.0.-.~ ~ ^ #.$.1.F.qX'.aXkX_.$.} [ $.h.4XiXMXiXwXfXfXfXiXrXyXhXfXiXvXiX7X+XE.XX7X        ",
"  cXgX#XT..X4XiXvXBXBXBXfXwXfXfXtXtXXXN.N.r.%.*.-.7.c.P.|.jXNXNXNXdX0X}.v.n.|.tXdXkXMXtXdXhXbXbXxXiXkXMXBXBXcXfX<XXXT.<XjX      ",
"  yXI.2.,.6.5.' (.nXgX4X X+.f 8 5 : : : & * * , 4 g v ` ` ^.vXnXkX'.^.X._ c p 6 - @ ( 6.u.c.F.P.{.{.$X1XzXmX' ' 5.6.,.8.{.      ",
"    uXI.&.{ I L V Z 6.R.Z.U 3 # + o X X + O O O o o o X O z.(.^ O.! u 9 2 0 0 1 = O / S.A.J.K.K.K.T.K.Y.^ T m W *.*.1.I.        ",
"      jX.X:.*.| Y l = 6.e.<.V a w q * . > q 3 = & % # % ^ v y j W A R C M M d a 1 = U.R.K.R.L.J.Z.V.e.I ; x T *.#.4.+XgX        ",
"        zX1X>.*.~ Z < q W ! R M d a 0 + : x c t y q , T k 6 , y =.C S D A B M a = Z T.A.V.e.8.<.-.Y R < 2 Y ^ #.4.2XgX          ",
"          cX2X-.I W l & z V R C d d a - X Z ~ A V z T V 3 t , 4 >.R C D F F B d = o.w.o./ W R A r s u & x ! { ,.8XfX            ",
"            cX#X#.^ Y r = C Y P D M d 0 o h 1.*.P ~ W x l c q , >.^ D F F F B a q v l p l M x q q C & t R { &.2XgX              ",
"              vX{.#.~ V 1 q D { ;.Q B s % @ 1.2.1.-.Q R A A r % o.=.F F F D B s 2 % % q z M r 0 D 1 q A ~ #.$XgX                ",
"                  G.{ W x , u A 1.2.[ C w + / s.3.:.{ E C C r % o.1.Q G F D N s $ + = l N s 0 F j < V ! [ I.gX                  ",
"                    d.{ T l 2 a H 0.3.{ N ; 4 M.9.2.$.Q S N t - K 0.P E F D N r . # r M z r C C < l W I C.uX                    ",
"                      d.I A g r - K i.1.E w * <.0.9.1.} B z z r K r.*.Q F D N * o , z M s B G r l W I f.                        ",
"                        d.*.W v q # L i.{ N ; K 0.2.3.} B M N x T s.1.} G C d + # r N z S G x g Y I f.1X                        ",
"                          g.>.,.K 1 # o.3.R 0 2 8.>.1.] N M A W O.N.w.{ G C q o = z M B G D Z T o.N.+X                          ",
"                            F.s.r.v , % %.-.z = o.-.^ E M B W %.8.N.a.$.E S > + r z B D G Y W ,.C..X                            ",
"                              XXD.8.l 3 & $.} - b 4.W A z P <.0.N.B.M.>.Q z + ; s C F C P %.t.I.XX                              ",
"                                XXD.=.l , , #.x 2 w.%.T N g.Z.A.K.S.M.>.Q p o - A E D E e.[.+X.X                                ",
"                                  oXD.W l % 3 { q 6.C.>.~ I.R.R.E.J.s.>.E * o m { D H _.4X8X+X                                  ",
"                                    %XN.v t # 4 C v R.C.q.K.K.K.R.J.0.*.V X l 4.E F z.uXuX1X                                    ",
"                                      %Xw.c y + 4 V F.R.V.0.V.H.T.J.>. .- 8 F.[ E  .tXuX8X                                      ",
"                                        $X-.l = . > u.Q.u.U r.N.Y.Y.-.H 8 }.q.{ [ =XuX7X                                        ",
"                                          *X~ p + X k !.5.o.8.N.Y.T. .S ;X{.1.$.v.2X4X                                          ",
"                                            *X6.p @ X c.6.>.r.B.Y.!.| `.7Xy.1.4.I.-X                                            ",
"                                              :X4.l . J e.y.F.J.T.!.x.qX|.0.1.H.|.                                              ",
"                                                  g.g & [.4X>XXXE.!.$X6XF.2.h.,X                                                ",
"                                                    F.4 ].zXeX@XE.T.4X-X0.i.#X                                                  ",
"                                                      k._ zXiX6XXXoX5XF.i.{.                                                    ",
"                                                        ^ 0XlXhX2X>X<Xs.n.                                                      ",
"                                                          ].lXhXpX4XG.y.                                                        ",
"                                                            lXlXiXXXh.                                                          ",
"                                                              zXuXF.                                                            ",
"                                                                fX                                                              ",
"                                                                                                                                ",
"                                                                                                                                ",
"                                                                                                                                ",
"                                                                                                                                ",
"                                                                                                                                ",
"                                                                                                                                ",
"                                                                                                                                ",
"                                                                                                                                "
};
