/* XPM */
static char *_b8bd89d250b444fd2730f75474eda56NFCJ9IgBRmko7Yu9[] = {
/* columns rows colors chars-per-pixel */
"64 64 4 1 ",
"  c #285827",
". c #486030",
"X c #488F36",
"o c #7AC747",
/* pixels */
"     o  X oX   XoX  X  Xo   XX   XX  oX  X X    oX  X  Xo   XX  ",
"    o  o     X X XoX XoX  XX  Xo XX oX    X   XX XoX XoX  XX  Xo",
"Xoo o  oX  oX X         XXX XooX    o   XX  X X         XXX XooX",
"  XoXXo   oo  XX            XX           XXXX               XX  ",
"    Xo    X XoX X  Xo   XoX          X  X oX    X  Xo   XoX     ",
"     X  oX Xo   X XXXX oX    XXXXo  X XX X oXXX X XXXX oX    XXX",
"  XoX  Xo       o           XX   XoX   X   o    o           XX  ",
"    oX o  oX  XXXo XooXXoX XX     oX          XoXo XooXXoX XX   ",
"X    ooXXoo   o X XoX   XoX   X  X  X   o  X oX X XoX   XoX   X ",
" o     Xo     oo            XXoo         oXX Xo             XXoo",
" oX   X   Xo  o X    XXX   XX  X  X  XX oXX     X    XXX   XX  X",
"  oX X     ooXoXX XXX X oX X          XX XX     X XXX X oX X    ",
"  XoXXXXo    oXo XoooX oX  oX XXX      X         XoooX oX  oX XX",
" XXX   XXoo  X      oo X  XXooX oXX X   XX   X      oo X  XXooX ",
"X   o Xo  XXo     X  XXo X    o  oXXo  oo   oX X  X  XXo X    o ",
"    XoXo Xoo    XX  XX XoX XX  X  o     oX  o   XX  XX XoX XX  X",
"oX  X  Xo   XX  X XooXooXX   XXo  Xo X XX     oXX XooXooXX   XXo",
" XoX XoX  XX  Xo       XoX    oXXoo   XoXX   oXX       XoX    oX",
"        XXX XooX    XoX    XXX  XX          X       XoX    XXX  ",
"            XX  XoX  XoX  oo       XoX X  oo   oXoX  XoX  oo    ",
"X  Xo   XoX       oX   XXoXX   XXX  Xoo ooX   oX  oX   XXoXX   X",
"X XXXX oX    XXX   X Xoo oo   Xo X   XoXo     o    X Xoo oo   Xo",
"o           XX      XX  XXooX X    ooXXXXoooX       XX  XXooX X ",
"Xo XooXXoX XX   XooX   XX   XX   XooXXoXXXX   X XooX   XX   XX  ",
"X XoX   XoX   X o XX X        oX     ooXoX X XX o XX X        oX",
"            XXoo   XX X  XooX      X oX oo X XX    XX X  XooX   ",
"X    XXX   XX  X XXX       Xoo X X   o X  X    o XXX       Xoo X",
"X XXX X oX X        X   X   XoX  X  X      XX Xo    X   X   XoX ",
" XoooX oX  oX XXXoX   oo X XXX  XoX  oXo       oXoX   oo X XXX  ",
"    oo X  XXooX  XoX ooX  XX  X   oX  oXX XooXoX XoX ooX  XX  X ",
"  X  XXo X    o X  oXX  o     XX  o   o   XXooooX  oXX  o     XX",
"XX  XX XoX XX  XXX     oXXX XooXX  oX   XooX Xo XX     oXXX XooX",
" XX  oX  X X    oX  X  Xo   XX       o  X oX   XoX  X  Xo   XX  ",
" XX oX    X   XX XoX XoX  XX  Xo    o  o     X X XoX XoX  XX  Xo",
"    o   XX  X X         XXX XooXXoo o  oX  oX X         XXX XooX",
"         XXXX               XX    XoXXo   oo  XX            XX  ",
"     X  X oX    X  Xo   XoX         Xo    X XoX X  Xo   XoX     ",
"Xo  X XX X oXXX X XXXX oX    XXX     X  oX Xo   X XXXX oX    XXX",
" XoX   X   o    o           XX    XoX  Xo       o           XX  ",
"  oX          XoXo XooXXoX XX       oX o  oX  XXXo XooXXoX XX   ",
" X  X   o  X oX X XoX   XoX   X X    ooXXoo   o X XoX   XoX   X ",
"         oXX Xo             XXoo o     Xo     oo            XXoo",
"  X  XX oXX     X    XXX   XX  X oX   X   Xo  o X    XXX   XX  X",
"      XX XX     X XXX X oX X      oX X     ooXoXX XXX X oX X    ",
"X      X         XoooX oX  oX XX  XoXXXXo    oXo XoooX oX  oX XX",
"oXX X   XX   X      oo X  XXooX  XXX   XXoo  X      oo X  XXooX ",
" oXXo  oo   oX X  X  XXo X    o X   o Xo  XXo     X  XXo X    o ",
"  o     oX  o   XX  XX XoX XX  X    XoXo Xoo    XX  XX XoX XX  X",
"     X      XXX  XX  oX  X X    oX  X  Xo   XX   XX  oX  X X    ",
" XX X   X X      XX oX    X   XX XoX XoX  XX  Xo XX oX    X   XX",
"  X X   XX X        o   XX  X X         XXX XooX    o   XX  X X ",
"   X       Xo X          XXXX               XX           XXXX   ",
"    X X XX  XoX      X  X oX    X  Xo   XoX          X  X oX    ",
"   oX  XXX   XX Xo  X XX X oXXX X XXXX oX    XXXXo  X XX X oXXX ",
"XXoX    X        XoX   X   o    o           XX   XoX   X   o    ",
"oo   XXX  X   X   oX          XoXo XooXXoX XX     oX          Xo",
"XXX   XX XX  XX  X  X   o  X oX X XoX   XoX   X  X  X   o  X oX ",
"  XX  X  X               oXX Xo             XXoo         oXX Xo ",
"    XX     XX     X  XX oXX     X    XXX   XX  X  X  XX oXX     ",
" X   XXX  XX  XX      XX XX     X XXX X oX X          XX XX     ",
"XX    X         X      X         XoooX oX  oX XXX      X        ",
"X  X        X X oXX X   XX   X      oo X  XXooX oXX X   XX   X  ",
"XX  XX  XX  X X  oXXo  oo   oX X  X  XXo X    o  oXXo  oo   oX X",
".X   XX X    XX   o     oX  o   XX  XX XoX XX  X  o     oX  o   "
};
