/* XPM */
static char *_acdf7a993e4480bf01032a831595127GUOUUO8VQ4RlBr5H[] = {
/* columns rows colors chars-per-pixel */
"64 64 165 2 ",
"   c None",
".  c black",
"X  c #060F0F",
"o  c #1B0700",
"O  c #260200",
"+  c #2C0300",
"@  c #2F0801",
"#  c #340500",
"$  c #3E0B02",
"%  c #380600",
"&  c #2F1C00",
"*  c #37120C",
"=  c #3F2500",
"-  c #3F2B06",
";  c #3F3412",
":  c #1E3F3D",
">  c gray18",
",  c #2F2520",
"<  c #203F3D",
"1  c #3E3E3E",
"2  c #4B0501",
"3  c #520600",
"4  c #5D0701",
"5  c #5C0B00",
"6  c #421200",
"7  c #581900",
"8  c #620800",
"9  c #690A00",
"0  c #720901",
"q  c #7C0B00",
"w  c #661307",
"e  c #721103",
"r  c #7E1705",
"t  c #492C1E",
"y  c #57211E",
"u  c #652B00",
"i  c #682502",
"p  c #763705",
"a  c #6D251E",
"s  c #693F1E",
"d  c #4A2F2E",
"f  c #4F372E",
"g  c #5D362F",
"h  c #55312E",
"j  c #7F4D00",
"k  c #7C541C",
"l  c #6D422E",
"z  c #63403E",
"x  c #72423E",
"c  c #7F6926",
"v  c gray37",
"b  c #78605E",
"n  c #7E7E7E",
"m  c #8A0B00",
"M  c #840C00",
"N  c #960A02",
"B  c #9C0D01",
"V  c #971A05",
"C  c #A50D01",
"Z  c #AD0E01",
"A  c #B40F01",
"S  c #AD1102",
"D  c #A51901",
"F  c #B41202",
"G  c #BA1101",
"H  c #B51C05",
"J  c #852C0D",
"K  c #952B01",
"L  c #813B00",
"P  c #BD2107",
"I  c #BF240B",
"U  c #AC3405",
"Y  c #B8320E",
"T  c #BE3E12",
"R  c #9D2B20",
"E  c #A43D30",
"W  c #C41200",
"Q  c #CA1300",
"!  c #CC1904",
"~  c #D41400",
"^  c #D91601",
"/  c #DD1A02",
"(  c #D71801",
")  c #E21C03",
"_  c #C82606",
"`  c #D32302",
"'  c #D82509",
"]  c #C83100",
"[  c #DF3500",
"{  c #E42306",
"}  c #EA2205",
"|  c #E42509",
" . c #EA2709",
".. c #F22707",
"X. c #F52909",
"o. c #FD2E0B",
"O. c #F42708",
"+. c #E03500",
"@. c #FF300F",
"#. c #FF3111",
"$. c #864407",
"%. c #964200",
"&. c #8E5400",
"*. c #9E5E00",
"=. c #AC5A00",
"-. c #96670F",
";. c #BF7200",
":. c #CD5A00",
">. c #DF5E06",
",. c #FF4B0D",
"<. c #FB440A",
"1. c #E24310",
"2. c #FF591D",
"3. c #FE571B",
"4. c #F35508",
"5. c #D76600",
"6. c #FA6305",
"7. c #E57300",
"8. c #FE7206",
"9. c #FE7F04",
"0. c #F57700",
"q. c #FE4D32",
"w. c #DE7328",
"e. c #ED7324",
"r. c #FA7A25",
"t. c #BF715E",
"y. c #C75C4A",
"u. c #C2745F",
"i. c #BF8F24",
"p. c #BF9B32",
"a. c #FF8004",
"s. c #F98B01",
"d. c #FE9700",
"f. c #FF9B00",
"g. c #FF951F",
"h. c #FFA710",
"j. c #FFAB19",
"k. c #FFAA12",
"l. c #FEB11D",
"z. c #DA8932",
"x. c #CC9D32",
"c. c #E59F35",
"v. c #FF9533",
"b. c #DFA528",
"n. c #FBA624",
"m. c #FFB92A",
"M. c #FFB623",
"N. c #FFAA3B",
"B. c #F5A031",
"V. c #FFBF30",
"C. c #FFC436",
"Z. c #FFC63B",
"A. c #B68B7B",
"S. c #FFD146",
"D. c #FFD34D",
"F. c #FFD551",
"G. c #AEA08D",
"H. c #A2CCBD",
"J. c #BDC5BA",
"K. c #87FFF5",
"L. c #8EFFF6",
"P. c #91FEF6",
"I. c #C0E2DA",
"U. c #C5FFFA",
"Y. c #E2FFFC",
/* pixels */
"                                                                                                                                ",
"                                                                                                                                ",
"                                                                                                                                ",
"                                                                                                                                ",
"                                                                                                                                ",
"                                                            # # $ $ $ g                                                         ",
"                                                      . . 9 ~ ~ o.@.o.P . .                                                     ",
"                                                    . N W ~ ) #.#.#.#.X.~ ~ # n                                                 ",
"                                                    . c.Y W / } N.N.g.9.0.~ # n                                                 ",
"                                                    j F.z.w.e.e.D.C.k.d.d.( M x                                                 ",
"                                                  - j.F.F.F.F.D.Z.k.f.f.f.) Q 8 1                                               ",
"                                                  ; F.F.F.F.F.D.f.f.f.f.d.@.S 2 1                                               ",
"                                                  ; F.F.F.F.F.D.f.f.f.a.#.N W 9 1                                               ",
"                                                  ; F.F.F.F.F.D.f.f.f.a.#.N W 9 1                                               ",
"                                                  - m.F.F.Z.b.c j j ;.d.6.N W 9 1                                               ",
"                                                  & ;.F.F.b.-.: : X j f.f.C G 8                                                 ",
"                                                    . D.F.c : K.K.: $.d.d.~ C 2                                                 ",
"                                                    f.D.D.D.Z.f.f.f.f.9.@.~ #                                                   ",
"                                                    f.j.l.j.h.f.f.f.8.<.@.~ #                                                   ",
"                                                    j m.m.m.l.f.f.8.,.' r 9 b                                                   ",
"                                                    . Z.S.D.Z.d.f.<.' V O .                                                     ",
"                                                    . d.Z.D.C.d.f.[ 9 O N .                                                     ",
"                                                      . 0 G ) @.. . 2 C ~ .                                                     ",
"                                                      . o + # 6 0 N S G C . >                                                   ",
"                                                    n 9 3 2 3 9 F / ! A G 9 3 z n n                                             ",
"                                                @ % 6 / E R G / / X.` G / / F 0 % #                                             ",
"                                            . 9 F / @.#.H.A.) o.@.o.o.o.o.o.) } ..~ .                                           ",
"                                            . ;.j $ #.L.Y.U.H.@.o.@.o...~ ~ B.e.) o..                                           ",
"                                            . 5.j % ) P.Y.U.H.@./ / ! Z C # x.n.6./ 9 d                                         ",
"                                              k 6 + G A.I.J.t.} A A C B A 9 j x.n.e.G +                                         ",
"                                              1 o 6 0 ) G.u.) ) N C C Z W B O c D.D.W #                                         ",
"                                              1 u &.. o.@.@.o.o.N W ~ W N . . c D.D.N O                                         ",
"                                              1 2 9 . ~ ~ ^ W N ~ ~ 9 . .     n # ^ o.F 2 v                                     ",
"                                            1 w B N . ../ ) } | C C 3 >           # o. .e v                                     ",
"                                            . m A m . } W ! } { N Z 4 1           . o.o.r v                                     ",
"                                            @ S C 8 O ~ F Q ( W C W q d           . X.@.r v                                     ",
"                                          . ` ( 8 @ N ! O.o.| N ~ ~ F 0 .         . ^ X.r v                                     ",
"                                        6 f.f.+.9 6 d.N | } 1.S.S.2. .B .   1 . <   #.) 9 v                                     ",
"                                      k -.6 d.u 3 K d.7.i q =.S.D.2.X.H . 1 $.U y.    f                                         ",
"                                    v p =.. d.= 5 ] f.d.$.5 J M.S.v.2.' 2 . =.4.q.    ,                                         ",
"                                      l p t ;.& 9 [ f.s.5.u & ;.V.Z.r.| N . &.5.,.,.I g                                         ",
"                                        6 f.. . 9 [ f.:.:.u . . d.f.6.| N . . $.d.d..                                           ",
"                                          .   1 9 ` :.:.:.u . . . x.r.@.o.. l t . .                                             ",
"                                                b 5 ` D _ w >   . J _ ) / 0 *                                                   ",
"                                                  # ~ N W 9 1   n y m / | ! #                                                   ",
"                                                  h B N W 9 1     1 9 ( | o.$                                                   ",
"                                                    . N W 9 1     1 9 W N o.%                                                   ",
"                                                    . ~ ~ 9 1       n # ~ ~ #                                                   ",
"                                                    . ~ A 2 1         # ~ ..F a                                                 ",
"                                                    . ~ C 2 1         + A o...0 1                                               ",
"                                                    . W C 2 1         d 0 o.o.r 1                                               ",
"                                                    . N N 2 1           . o.o.r 1                                               ",
"                                                    . N W 9 1           . ~ o.r 1                                               ",
"                                                    . N W 9 1             % _ r 1                                               ",
"                                                z 3 9 A Q 9 1             . P H a                                               ",
"                                            # O 8 A ~ ~ Q 8 1             . H } D .                                             ",
"                                          . ~ C A ~ ~ ~ C 2 1             . P o.P .                                             ",
"                                          . . . . . . . . .               . H } / o..                                           ",
"                                                                          . @ $ # $ .                                           ",
"                                                                                n n n                                           ",
"                                                                                                                                ",
"                                                                                                                                ",
"                                                                                                                                ",
"                                                                                                                                "
};
