/* XPM */
static char *e156698c717044ce964245156b2f00edB2nwjQLCbsGRzDFS[] = {
/* columns rows colors chars-per-pixel */
"64 64 165 2 ",
"   c None",
".  c black",
"X  c #060F0F",
"o  c #1B0700",
"O  c #260200",
"+  c #2C0300",
"@  c #2F0801",
"#  c #340500",
"$  c #3E0B02",
"%  c #380600",
"&  c #2F1C00",
"*  c #37120C",
"=  c #3F2500",
"-  c #3F2B06",
";  c #3F3412",
":  c #1E3F3D",
">  c gray18",
",  c #2F2520",
"<  c #203F3D",
"1  c #3E3E3E",
"2  c #4B0501",
"3  c #520600",
"4  c #5D0701",
"5  c #5C0B00",
"6  c #421200",
"7  c #581900",
"8  c #620800",
"9  c #690A00",
"0  c #720901",
"q  c #7C0B00",
"w  c #661307",
"e  c #721103",
"r  c #7E1705",
"t  c #492C1E",
"y  c #57211E",
"u  c #652B00",
"i  c #682502",
"p  c #763705",
"a  c #6D251E",
"s  c #693F1E",
"d  c #4A2F2E",
"f  c #4F372E",
"g  c #5D362F",
"h  c #55312E",
"j  c #7F4D00",
"k  c #7C541C",
"l  c #6D422E",
"z  c #63403E",
"x  c #72423E",
"c  c #7F6926",
"v  c gray37",
"b  c #78605E",
"n  c #7E7E7E",
"m  c #8A0B00",
"M  c #840C00",
"N  c #960A02",
"B  c #9C0D01",
"V  c #971A05",
"C  c #A50D01",
"Z  c #AD0E01",
"A  c #B40F01",
"S  c #AD1102",
"D  c #A51901",
"F  c #B41202",
"G  c #BA1101",
"H  c #B51C05",
"J  c #852C0D",
"K  c #952B01",
"L  c #813B00",
"P  c #BD2107",
"I  c #BF240B",
"U  c #AC3405",
"Y  c #B8320E",
"T  c #BE3E12",
"R  c #9D2B20",
"E  c #A43D30",
"W  c #C41200",
"Q  c #CA1300",
"!  c #CC1904",
"~  c #D41400",
"^  c #D91601",
"/  c #DD1A02",
"(  c #D71801",
")  c #E21C03",
"_  c #C82606",
"`  c #D32302",
"'  c #D82509",
"]  c #C83100",
"[  c #DF3500",
"{  c #E42306",
"}  c #EA2205",
"|  c #E42509",
" . c #EA2709",
".. c #F22707",
"X. c #F52909",
"o. c #FD2E0B",
"O. c #F42708",
"+. c #E03500",
"@. c #FF300F",
"#. c #FF3111",
"$. c #864407",
"%. c #964200",
"&. c #8E5400",
"*. c #9E5E00",
"=. c #AC5A00",
"-. c #96670F",
";. c #BF7200",
":. c #CD5A00",
">. c #DF5E06",
",. c #FF4B0D",
"<. c #FB440A",
"1. c #E24310",
"2. c #FF591D",
"3. c #FE571B",
"4. c #F35508",
"5. c #D76600",
"6. c #FA6305",
"7. c #E57300",
"8. c #FE7206",
"9. c #FE7F04",
"0. c #F57700",
"q. c #FE4D32",
"w. c #DE7328",
"e. c #ED7324",
"r. c #FA7A25",
"t. c #BF715E",
"y. c #C75C4A",
"u. c #C2745F",
"i. c #BF8F24",
"p. c #BF9B32",
"a. c #FF8004",
"s. c #F98B01",
"d. c #FE9700",
"f. c #FF9B00",
"g. c #FF951F",
"h. c #FFA710",
"j. c #FFAB19",
"k. c #FFAA12",
"l. c #FEB11D",
"z. c #DA8932",
"x. c #CC9D32",
"c. c #E59F35",
"v. c #FF9533",
"b. c #DFA528",
"n. c #FBA624",
"m. c #FFB92A",
"M. c #FFB623",
"N. c #FFAA3B",
"B. c #F5A031",
"V. c #FFBF30",
"C. c #FFC436",
"Z. c #FFC63B",
"A. c #B68B7B",
"S. c #FFD146",
"D. c #FFD34D",
"F. c #FFD551",
"G. c #AEA08D",
"H. c #A2CCBD",
"J. c #BDC5BA",
"K. c #87FFF5",
"L. c #8EFFF6",
"P. c #91FEF6",
"I. c #C0E2DA",
"U. c #C5FFFA",
"Y. c #E2FFFC",
/* pixels */
"                                                                                                                                ",
"                                                                                                                                ",
"                                                                                                                                ",
"                                                                                                                                ",
"                                                                                                                                ",
"                                                        g $ $ $ # #                                                             ",
"                                                    . . P o.@.o.~ ~ 9 . .                                                       ",
"                                                n # ~ ~ X.#.#.@.o.) ~ W N .                                                     ",
"                                                n # ~ 0.0.g.N.N.) / W Y c..                                                     ",
"                                                x M ~ f.f.k.C.D.r.e.w.z.D.j                                                     ",
"                                              1 4 Q { f.f.f.k.Z.F.F.F.F.F.j.-                                                   ",
"                                              1 2 F @.f.f.f.f.h.F.F.F.F.F.F.;                                                   ",
"                                              1 9 W N #.a.f.f.f.D.D.F.F.F.F.;                                                   ",
"                                              1 9 W N @.s.f.f.f.D.F.F.F.F.F.;                                                   ",
"                                              1 9 W N 6.s.5.j j c b.Z.F.F.m.-                                                   ",
"                                                8 G C f.f.j X : : -.b.F.F.;.&                                                   ",
"                                                2 C ~ f.f.j : K.K.: c F.F..                                                     ",
"                                                  # ~ o.9.f.f.f.f.Z.D.D.F.f.                                                    ",
"                                                  # ~ o.<.8.f.f.f.k.j.j.l.f.                                                    ",
"                                                  b 9 r | ,.8.f.f.l.m.m.m.j                                                     ",
"                                                    . + V ' <.f.f.C.D.D.Z..                                                     ",
"                                                    . N O 9 [ f.f.C.D.C.f..                                                     ",
"                                                    . ~ C 2 . . o.) G 0 .                                                       ",
"                                                  > . C A F N 0 $ % + o .                                                       ",
"                                            n n z 3 9 A A ! / A 9 3 2 3 9 n                                                     ",
"                                            # $ 0 F / / H ( X.) / G R E ) $ % +                                                 ",
"                                          . ~ ..} ) o.o.o.o.o.o.o.) A.H.#.@./ A 0 .                                             ",
"                                          . o.^ e.B.~ ~ O.o.o.o.#.H.U.Y.L.@.$ $.;..                                             ",
"                                        d 0 ) 6.n.x.# C F Q / / @.H.U.Y.L.) % $.5..                                             ",
"                                        + G e.n.i.k 9 A B C A A } u.J.I.A.G @ = k                                               ",
"                                        # W D.D.c O B W Z C C N ) ) u.G.) 0 $ o 1                                               ",
"                                        O N S.D.c . . N W ~ W N o.o.@.o.o.. &.u 1                                               ",
"                                    v 2 S o.( # n     . . 9 ~ ~ N W ~ ~ ~ . 0 2 1                                               ",
"                                    v 0  .@.#           > 3 C C | } ) / ... N B w 1                                             ",
"                                    v r @.o..           1 4 Z N } } ! G } . M G m .                                             ",
"                                    v r @.O..           d q Q C W ^ Q G ~ O 4 B S #                                             ",
"                                    v r X.( .         . 9 F ^ ~ N | o...~ N O 9 ~ ~ .                                           ",
"                                    v 9 ) #.  < . 1   . C ) 2.S.S.1.) | N d.6 9 1.f.f.=                                         ",
"                                        f     y.U $.1 . H o.2.S.S.T 0 i 7.f.K 3 u f.6 -.k                                       ",
"                                        ,     q.4.=.. 2 ` 2.v.S.M.p 7 &.f.f.] 5 6 f.. =.p v                                     ",
"                                        g _ ,.,.>.&.. N | r.C.C.5.& u 5.s.f.[ 9 & ;.= L l                                       ",
"                                          . f.f.j . . N  .6.f.d.. . u :.:.f.[ 9 . . f.=                                         ",
"                                            . . t l . o.o.v.p.. . . u :.:.:.` 9 1   .                                           ",
"                                                  * 0 / ) _ J .   > w _ D ` 5 b                                                 ",
"                                                  # ! } / m y n   1 9 W N ~ #                                                   ",
"                                                  $ o.' ^ 9 1     1 9 W N B h                                                   ",
"                                                  $ o.N W 9 1     1 9 W N .                                                     ",
"                                                  # ~ ~ # n       1 9 ~ ~ .                                                     ",
"                                                a F ..~ #         1 2 A ~ .                                                     ",
"                                              1 e ..o.A +         1 2 C ~ .                                                     ",
"                                              1 r o.o.0 d         1 2 C W .                                                     ",
"                                              1 r o.o..           1 2 N N .                                                     ",
"                                              1 r X.~ .           1 9 W N .                                                     ",
"                                              1 M _ #             1 9 W N .                                                     ",
"                                              a H P .             1 9 Q F 9 3 z                                                 ",
"                                            . D  .P .             1 8 Q ~ ~ F 8 + #                                             ",
"                                            . P o.P .             1 2 C ~ ~ ~ A C ~ .                                           ",
"                                          . o./ ) P .               . . . . . . . . .                                           ",
"                                          . $ # $ @ .                                                                           ",
"                                          n n n                                                                                 ",
"                                                                                                                                ",
"                                                                                                                                ",
"                                                                                                                                ",
"                                                                                                                                "
};
