/* XPM */
static char *_d4a1b0416084dd2d05e16853c25799bjOEF80iptyJsu6SX[] = {
/* columns rows colors chars-per-pixel */
"64 64 252 2 ",
"   c None",
".  c #69310C",
"X  c #6D3403",
"o  c #6A381B",
"O  c #6A381C",
"+  c #6F360C",
"@  c #663723",
"#  c #6B3623",
"$  c #6E3B25",
"%  c #6B3628",
"&  c #6E392A",
"*  c #663726",
"=  c #743A25",
"-  c #743C2A",
";  c #743728",
":  c #763F31",
">  c #6F3F31",
",  c #7C421C",
"<  c #75461A",
"1  c #7E5214",
"2  c #7F4607",
"3  c #6D4229",
"4  c #724125",
"5  c #74422C",
"6  c #7C4C2D",
"7  c #7A4B27",
"8  c #7C552B",
"9  c #6E4A39",
"0  c #724130",
"q  c #754E35",
"w  c #7C4A32",
"e  c #764D3A",
"r  c #7D4A3A",
"t  c #7B433E",
"y  c #795335",
"u  c #795041",
"i  c #8A3B00",
"p  c #854809",
"a  c #8E5B0E",
"s  c #8B5403",
"d  c #94580A",
"f  c #854B14",
"g  c #864D1D",
"h  c #8A4D1D",
"j  c #894A15",
"k  c #8F5B10",
"l  c #85521C",
"z  c #8A511B",
"x  c #8E591D",
"c  c #865416",
"v  c #935911",
"b  c #9A5D14",
"n  c #9B5B1B",
"m  c #925A1C",
"M  c #90491F",
"N  c #976006",
"B  c #A36716",
"V  c #B27B17",
"C  c #B16C01",
"Z  c #864D22",
"A  c #8B4D23",
"S  c #8B4C29",
"D  c #864D29",
"F  c #855223",
"G  c #8C5324",
"H  c #85542C",
"J  c #8B542D",
"K  c #855A2C",
"L  c #8C5828",
"P  c #935422",
"I  c #9A5C22",
"U  c #92532B",
"Y  c #965928",
"T  c #834B33",
"R  c #8A4E33",
"E  c #854E3B",
"W  c #894E3A",
"Q  c #834737",
"!  c #934D3B",
"~  c #855434",
"^  c #8B5435",
"/  c #855934",
"(  c #8B5934",
")  c #84533B",
"_  c #8B543B",
"`  c #875B3D",
"'  c #8C583A",
"]  c #915434",
"[  c #92533B",
"{  c #92593B",
"}  c #935934",
"|  c #904820",
" . c #9B6525",
".. c #8D6029",
"X. c #A56A28",
"o. c #AA7429",
"O. c #B97A29",
"+. c #AC7333",
"@. c #B67A34",
"#. c #BC7E35",
"$. c #BC7D3A",
"%. c #B57836",
"&. c #AD6F3C",
"*. c #A25917",
"=. c #884D45",
"-. c #914D41",
";. c #8A5442",
":. c #895A41",
">. c #8C5249",
",. c #845845",
"<. c #925442",
"1. c #945944",
"2. c #915952",
"3. c #996944",
"4. c #A97B48",
"5. c #B17F42",
"6. c #C57A43",
"7. c #B78128",
"8. c #AB8634",
"9. c #BE8233",
"0. c #BC813B",
"q. c #B98735",
"w. c #A6802F",
"e. c #BA801D",
"r. c #C4872C",
"t. c #C78725",
"y. c #C8912D",
"u. c #C48433",
"i. c #CA8934",
"p. c #C3863B",
"a. c #C88A37",
"s. c #C8933A",
"d. c #D49B38",
"f. c #EA9B37",
"g. c #DDA138",
"h. c #EDB92D",
"j. c #FCB42D",
"k. c #F4BB2C",
"l. c #F8B929",
"z. c #F6AE3A",
"x. c #ECB83A",
"c. c #F4B634",
"v. c #FBB534",
"b. c #F5BA35",
"n. c #FBBB34",
"m. c #F4B53B",
"M. c #FBB63D",
"N. c #F4BB3B",
"B. c #FBBB3C",
"V. c #EBAB3C",
"C. c #F7BB1F",
"Z. c #FDC42D",
"A. c #FAC62F",
"S. c #FEC534",
"D. c #FEC935",
"F. c #FEC53B",
"G. c #FEC93B",
"H. c #F5C238",
"J. c #B88C4C",
"K. c #AD8C4F",
"L. c #AB966B",
"P. c #AC8D7A",
"I. c #AC917A",
"U. c #B39070",
"Y. c #C58947",
"T. c #C59247",
"R. c #C58D54",
"E. c #CB8954",
"W. c #C9895B",
"Q. c #D49650",
"!. c #DCA94F",
"~. c #ECAC44",
"^. c #EDAB4B",
"/. c #F8AD4A",
"(. c #ECB747",
"). c #F5B642",
"_. c #FBB544",
"`. c #F5BB44",
"'. c #FBBB42",
"]. c #F4B44B",
"[. c #FBB54B",
"{. c #F4BB4C",
"}. c #FCBB4B",
"|. c #E9AD54",
" X c #EBB353",
".X c #ECB55C",
"XX c #EABA59",
"oX c #F4B453",
"OX c #FBB655",
"+X c #F4BB54",
"@X c #FABA52",
"#X c #F7B95C",
"$X c #DEB461",
"%X c #ECB361",
"&X c #E9B968",
"*X c #F4BA65",
"=X c #E89F50",
"-X c #F6C444",
";X c #FEC443",
":X c #FEC943",
">X c #F7C24E",
",X c #FEC44A",
"<X c #F6CC4A",
"1X c #FDCA4A",
"2X c #F7C945",
"3X c #ECC75F",
"4X c #E9C659",
"5X c #F6C353",
"6X c #FEC554",
"7X c #F5CA53",
"8X c #FECA55",
"9X c #F4C55B",
"0X c #FEC45B",
"qX c #FACB5A",
"wX c #EBC04D",
"eX c #EDC563",
"rX c #ECC968",
"tX c #F7CA65",
"yX c #F9D364",
"uX c #EDCB74",
"iX c #F8D67A",
"pX c #F2D176",
"aX c #DFCA6F",
"sX c #AD8E86",
"dX c #AF8E86",
"fX c #F7D587",
"gX c #F5D592",
"hX c #F0C98F",
"jX c #FFEA8C",
"kX c #FFF18B",
"lX c #FFED92",
"zX c #FFE59A",
"xX c #FFEB9B",
"cX c #FFE496",
"vX c #FFF29C",
"bX c #EECFBA",
"nX c #F1CEBC",
"mX c #F4CFB3",
"MX c #F2D0B4",
"NX c #F5D4A9",
"BX c #FFEBA6",
"VX c #FFF3A3",
"CX c #FFF5A8",
"ZX c #FFF7B4",
"AX c #FFEDB3",
"SX c #ECCFC2",
"DX c #F3CBC3",
"FX c #EAD0C1",
"GX c #FFFDEA",
"HX c #FDFCFD",
"JX c #FBFCFA",
"KX c #FFF2D1",
/* pixels */
"      CXcXcXzXNXMXnXSXSXSXFXbXMXbXnXnXbXnXnXDXDXDXDXDXDXDXDXDXDXDXDXDXDXDXDXDXDXDXDXDXDXnXnXbXMXNXMXbXbXFXFXnXMXNXNXzXcXAX      ",
"      uX$X$XJ.7 6 0 e 9 u 9 q y q q q q q e q e e e e e e e e e q q e e e e e e e e e q q q q q q q 9 9 9 e y 8 < J.$XXXuXAX    ",
"      eX+X3XT.F ` :.:.,.u ,.:.` :.` ` ,.` :.:.` :.` ` :.:.` ' :.' ` ` ` :.:.;.;.,.,.' :.` ` ` ` ` :.u u ,.,.:.} F T.eXXXrXgX    ",
"      tX>X XT.F ^ E =.=.,.=.) ~ ) r ) =.) ) r ) ) E ) / r ) ) ) ) ) ) T ) E E ` E ) ) E ) ) r ) ( ` u ,.=.E _ R l T. X>XtXgX    ",
"      tX{.@X0.X ; ; & & & * = = & & & & & & $ * # $ $ $ $ # $ $ $ $ $ $ $ $ $ $ $ & & % & & & & 4 = $ $ & - ; = X p.+X>X9XgX    ",
"      9X`.{.p.X = ; ; - $ 3 = = & & & & $ $ = $ $ $ $ $ $ $ $ $ * $ $ * $ $ $ = $ $ = $ & & & ; = = $ * $ & ; = X p.+X(.9XgX    ",
"    fXqXN.(.s.g ! E E ) ) ~ ) W E ) E E ) ~ / ~ / ~ ~ ) ) ) ) r ) ) ) ~ ~ / ~ ~ / E ) ) ) ,.E ) ^ ~ ~ / ~ E W W F T.wXb.qXhX    ",
"    pX<XH.x.s.c [ [ _ ~ / _ _ _ ;.;.:.:._ _ _ _ ) _ ` _ ` ;.;.,.:.;.) ,.;._ _ ) _ _ ) _ ) ;.;.;.' _ ~ ) ( _ _ [ c s.x.H.<XiX    ",
"    iX2Xh.b.d.j } ] ] ( ( ~ ' [ ' _ _ _ [ ' _ ' _ _ ;._ ;.<.;.E ;.;.;._ _ ;.' _ _ ^ _ _ ' _ _ _ _ ( ( ( ^ ] [ U f d.c.k.<XiX    ",
"    fX,XS.B.y.p M A A h l Z A A g g h h h g h h A h h Z M Z A U S A M Z A g h h h h h h z z h A A A F F z A A M p y.N.H.<XfX    ",
"    fX{.H.c.d.i.p.Y.p.p.q.p.p.p.r.r.r.r.r.r.r.u.i.r.r.i.i.u.u.i.i.i.u.i.i.i.r.i.r.r.r.r.r.r.r.r.p.p.q.q.u.p.p.Y.i.g.c.B.>XfX    ",
"    fX8X;Xc.).OXOXOX[.'.`.`._.[.;XN.B.N.M.'.'.'._.'.'.M.M.m.B.c.m.M.M.M.B.`.'.).'.`.B.M.`.B.B.B.[._.`.`.`.}.@XOX@Xm.v.;XqXfX    ",
"    fX5XB.n.M.m.m.m.c.k.h.h.k.l.c.c.c.m.m.m.m.m.m.m.c.v.k.c.l.n.n.n.v.c.c.c.m.c.N.m.x.m.m.c.c.x.l.k.h.h.h.c.m.).).M.n.B.5XfX    ",
"    gXtX6X6XqX8X6X,X,X;X1X1X,X;XqXqX5X0X#XtX0X0X0X6X8X6X,X;XF.;X;XB.;X,X6X8X6X8X0X0X0X0X0X0X0X0X;X,X:X,X:X,X,X6XqX8X6X8XtXgX    ",
"    hX$X X X|..X.XoX X X.X.X.X.XXX.XXX%X.X%X%X%X%X XoX^.(.1X}.-X,X'.8X(.~.+X X.X%X%X%X%X%X.X.X.X.XXX.X.X X XoX.X X|. X.X&X      ",
"    L.8 a b v v v v v m m P P P a a a v v v v v v s N s e.{.{.).).{.{.V s N s a a k k k a k k a P P G G v v v v k v b k 1 L.    ",
"JXJXP.6 ( G J ^ _ [ R ^ ~ H ~ ^ ) ~ ( H ^ ^ J J ~ / J z X.|.oX/.%X*X$X .1 ..F J J S J J ^ H ~ ( <.~ K 8 ~ E W ( ^ 8 / 8 y L.    ",
"JXJXsXr ] J J ^ ' [ ( ' / H ( ( ;.' ^ ] ^ J ^ ' ( ) ~ H F m B B I X.P x G F / ' ' ( ^ ^ H ( R ~ <.^ K K ( ' _ R / K / K y I.    ",
"HXHXdXE ' J ( / ~ T R / ~ / ^ [ _ [ [ R S ^ ( ^ ( ) ) _ ( 6 ^ J S S A Y ..( _ E >.;._ ' ( ^ _ _ -.( K H ~ ;.[ R ( ~ / / 8 dX    ",
"HXHXdXE ' ^ / ~ ' _ _ _ ` _ W W ] R [ ^ 1.^ { T { H { ^ ' 1.;.>.1.[ } S G ] W >.=.=.;.( { S [ W ! [ ( / _ <.[ ! [ W ( / 8 I.    ",
"HXGXdXE [ ^ ~ ) :.E ;.E ` ;.;.-.( H / ~ / 8 K L g f z h Z ( ^ _ S | M M j M A ^ ' 1./ F Z Z A j ! | Z H ( ~ R { -.-.<.' ~ P.    ",
"  GXP.w ( / ) ` ;.-.<._ _ [ R [ 1 F 1 8 < 3.4.5.0.a.#.u.B p g c o.$.9.p.p.#.9. .1 , < 4.5.J.0.Y.6.5. .c l F M | ! -.>.<./ P.    ",
"  GXI.~ ( ^ ` ` ;.Q [ U G A g Y w.w.8.K.K.hXgX&X.X@X].}.~.O.q.8.(.0X+X#XOX@X6X!.7.8.J.hXgX&X|.+XOXtX!.8.w.q.8.+.] ! -.[ 8 L.    ",
"  JXI.e ' / _ ^ ] | I X.o.o.o.s.yX7XtXfXCXZXVX*X(.V.;X:X8X4XrXpX:X-Xm.).V.M.F.:X7XiXxXCXBX*X{.x.v.,XqXeXrXyXtXtXX.! -.R 8 L.    ",
"JXHXsXe ' ^ Z M I %.=X#X{.(.>X>XG.:X>X9XiXxXfX+X(.N.'.-X7XyXuXaXH.H.b.m.M.n.S.D.-X4XiXxXfX0Xm.n.Z.H.7XrXpXeXwX~.b A <.1.6 L.    ",
"JXHXsXu ( G  .X.OX/./.M.h.h.G.:XZ.S.;X>X5X+X(.).-X:X:X-XyXkXVXvXH.k.b.v.B.F.D.G.2X7X9XXX|.x.B.S.Z.H.yXVXCXlX4Xx.B I R <.E I.    ",
"HXGXsX6 G o..XoX[.v.j.j.l.D.D.H.D.S.F.;X`.x.x.H.H.F.;X-XyXkXVXcXh.m.b.S.S.S.F.G.-X<X-X(.x.N.S.S.D.:XeXVXVXjXwXx.`..X&.J T P.    ",
"GXKXL.c d V (.).v.j.j.Z.S.D.:X;XF.S.H.b.N.n.H.S.F.F.G.;X>X9XXX.X).B.F.D.S.S.F.;XH.H.H.k.A.A.S.S.A.G.7XrX&X.X(.h.h.(.V c G U.    ",
"ZXBX&X|.~.V.-X;X'.B.S.n.S.F.;X6X;X:X:XF.H.S.D.D.S.Z.F.:X,X,X@X6X,X,XF.D.D.G.G.:X;XH.S.D.Z.S.F.G.D.D.1XwX9X>X:XZ.Z.:Xx.~.|.&XzX  ",
"pX9X6X8X1X1X:X:X;X;XF.;X:X,X,X6X1X1X:X;XF.S.F.F.:XG.;X;XF.;XF.F.'.'.F.S.Z.S.F.;X;X;XD.G.G.D.:X;XD.D.G.:X8X;XF.S.Z.S.;X1X1X8XtXpX",
"<X1X;Xn.k.H.`.x.M.M.v.v.n.N.M.M.'.m.m.n.n.n.n.n.m.m.).N.B.n.n.j.M.B.n.n.H.N.N.'.'.B.n.v.n.B._.)._.B.A.H.n.m.M.B.B.H.'.n.l.F.;X<X",
"G.S.j.j.j.B.-X(.`.'.M.n.n.b.n.'._._.'.M.v.n.M.M.}.'.{.`.m.k.l.C.v.v.v.b.N.N.N.N.M.M.M.'.}._._.[.OXm.H.k.B.M._._._.)._.M.l.l.D.G.",
"S.D.l.}.Q.Y.W.Y.Y.E.E.R.W.R.E.E.y.s.R.W.R.J.T.T.R.Y.s.g.v.M.z./._.z.B.v.d.a.E.E.T.T.J.R.R.R.T.y.W.E.E.R.W.E.E.Y.Y.W.Y.Q.'.j.S.F.",
"D.G.j._.O.f L g j j h h g g | | s p Z S Z l f l l G 2 V '.M.z.f.f.z.v.}.e.p P g f c g A D Z p s M h g Z Z h j j z x p O.M.j.D.G.",
"G.S.l.}.O.h L Y I P Y L L L U U x L [ ;.[ ( J J / ] f r.]._./.i i /._.].u.j ] ^ U L J ^ _ _ U P U Y L L Y U P P Y L z r.}.n.F.F.",
"G.F.v.}.u.g H G U U ^ J H H U ] J ^ =.>.-._ ^ ^ ~ [ S @.oX]./.N N /./.oX%.S [ W ^ ^ ( ;.>.-._ U U J J / ^ ^ U G F J l #.[.n.G.:X",
"D.F.N.+X$.Z ` ` J J ^ _ ` / ( ^ ( ;.=.>.>.^ ^ ( ;.;.S $.#X[.}.C C }.].#X%.S -.-.( ^ ^ ;.>.>.;.^ [ ^ / / ) _ ] J ( ( F @.{.B.D.F.",
"G.G.b.[.%.D _ ~ ^ _ _ ` y / _ _ ~ _ ;.>.' ^ J ^ T R g @.XX).}.C C ,X].oX$.Z R W ^ K K _ ;.=._ ( _ ^ / ) ,._ _ ^ ~ _ F $.].N.F.2X",
"G.D.c.{.$.J ;.` _ _ ;.,.` ) _ _ ( ) _ ;.^ L J ~ _ 3.F X..XV.)._.x.).~. XX.U 1.' J K H / ) :._ _ _ ) ` ,.=.,._ ' ) ) J 0.{.N.F.:X",
"D.D.N.@X+.O - 5 - - - & 3 3 = - 4 4 - - 4 o < < $ = < X 9.#X].[.(.(.9X9.X 4 - = o < < 4 4 & 5 = - = 3 3 > & - - 5 $ . +.[.N.F.G.",
"D.G.B.].X.. # # # # # % @ O O # # @ * # O o O O % % # . X O..X#X*X.XO.X . $ % % # O + o $ @ * * # O O @ % % # O $ O . X./.n.G.F.",
"S.S.n.@X%.g w Q T T Q Q w q T Q r r r r Q T w Q u t E W , p n +.o. .p < W =.: =.t w w w r t r r T w q e t Q Q T T T g @.[.m.D.F.",
"D.D.n.}.$.S ;._ _ [ ;.;.,.` _ W ;.>.>.=.;.;.;.;.2.>.=.<.' L S h z z J ' >.>.=.2.>.;._ :.;.,.=.>.[ _ ) ` ;.;.W [ _ _ Z p.}.n.F.D.",
"G.F.c.}.$.S ' W ^ ! _ ) ) ~ ( _ ` ) ` _ _ _ ;.;.;.>.,.) _ [ } J J ( { _ E >.>.>._ ` _ ) _ ) :._ _ ^ ) ` ;.[ ] ] ( ( Z $.[.n.F.G.",
"D.S.c.[.$.S ' ' ^ ] W _ ) ~ ^ ! ( ^ ^ _ ^ W _ _ ~ ) _ ) ~ R R ( ( H R ~ _ ;._ E ) _ ( ^ _ ( _ _ ] ^ ~ ) _ _ W ^ ( ' A #.[.v.F.G.",
"G.F.n.@X$.Z ' ( ^ ] ^ _ ` ~ ( _ ~ ^ ^ ^ ^ _ ^ _ ^ / ~ ~ ' [ _ _ ( ( ' 1.^ ~ ^ ' ^ ^ ^ _ ^ ^ ^ ^ ! ^ / ` _ _ ] ^ ^ ( Z #.@XN.F.:X",
":XG.b.@X$.Z ^ ^ J J ^ ) ~ ~ ^ W ^ ^ ^ ^ R _ _ ^ / ^ ( ~ ~ ) _ _ E _ ) ) ^ ( ( ^ ^ R _ R ^ R ^ ^ _ ^ / ) ) ^ ] J H ^ g #.}.N.G.:X",
":XD.b.{.0.Z ^ ~ J ^ ( ) / / ^ _ ^ ^ ^ ^ [ W _ _ / H K ~ ) ;.;.;.` ;._ ) ^ ~ S ^ ^ _ _ ^ ^ ^ ^ _ R ~ / ) _ ^ ^ K H ( F 0.].b.;X:X",
"F.S.k.}.#.h ( ^ J ^ ) _ W ! _ -._ ^ _ _ _ ^ _ ^ _ _ _ ^ ^ W _ _ _ _ _ _ ^ _ ^ _ ^ _ ^ _ _ _ _ _ ! ] ] ! _ ^ ^ J J ] A $.[.b.F.;X",
"F.D.H.+X0.S _ ' ^ ( :.>.;._ _ >.;.) _ ) ;._ ) ;._ ) ;._ ;.` ) _ ) _ _ ) _ ;.) _ _ ;.) _ _ _ ) _ ;._ _ _ ) ;.~ ^ ' ' | J.+XM.F.;X",
"F.:XN.+X+.= - 4 4 5 0 > > 5 : : 0 0 0 - > 0 0 5 0 5 > > 5 0 0 - 0 0 5 0 > > > : > 0 0 0 > 0 - 0 : : - 0 0 0 4 - 5 - o +.oX-X;X;X",
";X:XH. XX.. * $ @ @ * * * # # # @ @ @ @ @ @ @ @ @ @ @ # @ * * @ @ @ @ @ # * @ @ @ @ @ @ @ @ @ @ & * * % % * @ O # O . X. XN.:X;X",
"F.F.b.{.%., T Q 6 w e w w 6 6 D w w w w w w 6 w w w w w w 6 w w w w w w w w w 6 w w w w w w w w w T w w r r w 6 T T , O.{.b.S.F.",
"S.S.k.,X0.Z [ [ ' ' ;.:.' ( ^ ( ' ' ' ' ' ' ' _ ' ' ' _ ' ' ' ' ' ' ' ( ' ' ' ' ' ' ' ' ' ' ' ' ( ^ { ;.;.;.' ' ] [ A 9.`.A.Z.S.",
"D.S.c.}.9.h ] ^ ( _ _ ;.( ^ ^ J ^ ^ _ ^ ^ ^ _ ^ ^ ^ _ ^ ^ ^ _ ^ ^ _ ^ ^ _ ^ ^ ^ _ ^ ^ ^ _ ^ ^ ^ ^ ( ^ _ _ _ _ ^ ( ] A #.}.k.D.D.",
";XG.b.+X0.S [ ^ _ _ =.=._ ) ~ ( _ _ _ _ _ _ _ _ _ _ _ _ _ _ _ _ _ _ _ _ _ _ _ _ _ _ _ _ _ _ _ ) _ ^ ) ) >.:._ W ^ ! G 0.{.b.F.;X",
",X:XN. X$.Z [ ^ ^ E >.;.` ) _ ) _ _ _ _ _ _ _ _ ) _ _ _ _ _ _ ' _ _ _ _ _ ;._ _ _ _ _ _ _ _ _ _ ( ) ) _ ;.-._ _ T 1.R 5.#Xm.;X6X",
"1X;Xb.{.9.f U U J J R W R J J J J J J J J R J J J J J ^ S J J J S ^ J J J S J H J J J S J ^ J J G G G J ^ ^ J P U U i #.].N.;X6X",
"B.D.k.c.t.d b b b *.I I I m n n n n n n n n n n n n n n n n n n n n n n n n n n n n n n n n n n b b b n m n b b b n d t.N.S.;X;X",
"G.G.C.l.z.V.].V.V.~.^.|.^.^.^.^.^.^.^.^.^.^.^.^.^.^.^.^.^.^.^.^.^.^.^.^.^.^.^.^.^.^.^.^.^.^.^.^.^.~.^.^.^.^.~.~.V.oX~.z.l.l.F.;X",
"F.D.l.k.c.`.}.m.c.N.).`.`.).).).).).N.).).).).).).).).).).).m.).).).).).).).).).).).).).).).).).m.N.m.).).).B.m.N.}.).x.k.k.D.;X",
"9X7X2X:X5X{.(.>X-X-X5X5X5X>X>X5X>X>X>X>X>X>X>X>X{.5X>X>X>X>X>X5X>X>X>X>X>X>X>X>X>X>X>X>X>X>X>X>X5X>X>X5X5X>X-X-X>X{.+X>X,X-X<X9X",
"  uX4X4XrXuXrX3X4X4X3XeXeX3XeXeX3X3X3X3X3X3X3X3X3X3X3X3X3X3X3X3X3X3X3X3X3X3XeX3X3X3X3X3X3X3XeX3XeXeX3XeXeXeX4X4X3XrXuXrX4X4XuX  ",
"  AXVXxXxXVXxXkXkXkXlXlXlXlXlXlXlXlXlXlXlXlXlXlXlXlXlXlXlXlXlXlXlXlXlXlXlXlXlXlXlXlXlXlXlXlXlXlXlXlXlXxXxXlXkXkXlXxXBXzXxXvXCX  "
};
