/* XPM */
static char *c4da2b575478431a86ca04d6d5a712dbtfSr8L5AjACbYE53[] = {
/* columns rows colors chars-per-pixel */
"64 64 253 2 ",
"   c None",
".  c #050503",
"X  c #170505",
"o  c #06140B",
"O  c #141408",
"+  c #061515",
"@  c #1B1D1C",
"#  c #280502",
"$  c #380402",
"%  c #350516",
"&  c #2F1010",
"*  c #14261E",
"=  c #2C2B17",
"-  c #331628",
";  c #182826",
":  c #292A2A",
">  c #3B2429",
",  c #323833",
"<  c #001626",
"1  c #4A0502",
"2  c #590302",
"3  c #5C1817",
"4  c #510F0F",
"5  c #640100",
"6  c #6C0202",
"7  c #680906",
"8  c #740202",
"9  c #7C0201",
"0  c #7C0B02",
"q  c #780708",
"w  c #661406",
"e  c #781507",
"r  c #7B0915",
"t  c #681819",
"y  c #741915",
"u  c #6E001B",
"i  c #52281B",
"p  c #6A2719",
"a  c #73261B",
"s  c #76280A",
"d  c #6C1A22",
"f  c #493033",
"g  c #7A2829",
"h  c #79372A",
"j  c #683A38",
"k  c #763B36",
"l  c #6B2D2C",
"z  c #5E0C23",
"x  c #1B443B",
"c  c #45493B",
"v  c #664738",
"b  c #784029",
"n  c #673E44",
"m  c #316954",
"M  c #335F53",
"N  c #484C48",
"B  c #4B5646",
"V  c #4B5755",
"C  c #545957",
"Z  c #584952",
"A  c #795A53",
"S  c #6B5046",
"D  c #526751",
"F  c #72685A",
"G  c #586864",
"H  c #676868",
"J  c #767175",
"K  c #635F66",
"L  c #840101",
"P  c #8C0101",
"I  c #830A01",
"U  c #8B0C01",
"Y  c #87070B",
"T  c #940200",
"R  c #9C0200",
"E  c #940B01",
"W  c #9C0C02",
"Q  c #9B0C0C",
"!  c #96050A",
"~  c #831302",
"^  c #881509",
"/  c #9B1403",
"(  c #9D150A",
")  c #961706",
"_  c #880715",
"`  c #980816",
"'  c #881713",
"]  c #971817",
"[  c #A30201",
"{  c #AB0201",
"}  c #A40C02",
"|  c #AC0A01",
" . c #AA030B",
".. c #A50B0B",
"X. c #AC0B0B",
"o. c #A4020A",
"O. c #B30201",
"+. c #BC0301",
"@. c #B30A02",
"#. c #BC0A02",
"$. c #B50B0B",
"%. c #BC0B0A",
"&. c #B8030A",
"*. c #AC1303",
"=. c #AC120C",
"-. c #A61407",
";. c #BB130C",
":. c #B81407",
">. c #AA0815",
",. c #BC0113",
"<. c #B60715",
"1. c #A51816",
"2. c #B71716",
"3. c #922416",
"4. c #AA2416",
"5. c #B22410",
"6. c #891925",
"7. c #981223",
"8. c #BA1725",
"9. c #B3112A",
"0. c #862928",
"q. c #9A382C",
"w. c #8B2E30",
"e. c #A42528",
"r. c #B52D31",
"t. c #C30301",
"y. c #CB0301",
"u. c #C30C03",
"i. c #CB0A01",
"p. c #C20B09",
"a. c #CA060B",
"s. c #D30202",
"d. c #D40C02",
"f. c #DB0E02",
"g. c #DA0608",
"h. c #C71507",
"j. c #D41302",
"k. c #DD1302",
"l. c #D91707",
"z. c #C70517",
"x. c #D70316",
"c. c #C61617",
"v. c #D21916",
"b. c #E20D01",
"n. c #E80806",
"m. c #F90503",
"M. c #E31402",
"N. c #EB1303",
"B. c #E9130A",
"V. c #E61908",
"C. c #F71707",
"Z. c #E60716",
"A. c #E41813",
"S. c #F91A14",
"D. c #F30914",
"F. c #D6240F",
"G. c #F32411",
"H. c #C70728",
"J. c #D60326",
"K. c #C61626",
"L. c #D7162B",
"P. c #D61837",
"I. c #C91435",
"U. c #E60228",
"Y. c #EF0D2D",
"T. c #CE2831",
"R. c #8E4739",
"E. c #A2433F",
"W. c #C34338",
"Q. c #AE3649",
"!. c #CD1D43",
"~. c #ED1245",
"^. c #D3304E",
"/. c #F02A4B",
"(. c #F23B62",
"). c #994744",
"_. c #88555A",
"`. c #8E544C",
"'. c #AB4F4E",
"]. c #916855",
"[. c #A7665A",
"{. c #B45B67",
"}. c #876A64",
"|. c #8F716F",
" X c #B1746F",
".X c #905B65",
"XX c #CC5056",
"oX c #D6526E",
"OX c #F25B75",
"+X c #D37070",
"@X c #EA717A",
"#X c #578A79",
"$X c #9A8270",
"%X c #AE8D74",
"&X c #987480",
"*X c #D57687",
"=X c #FC6883",
"-X c #79928B",
";X c #7DAD9D",
":X c #8E8F90",
">X c #A89596",
",X c #B09086",
"<X c #BBA795",
"1X c #95B0A4",
"2X c #B4A8A7",
"3X c #B0B4B2",
"4X c #C78788",
"5X c #D0988C",
"6X c #F38F90",
"7X c #CCAF9B",
"8X c #E5AB99",
"9X c #EC8FAC",
"0X c #D0AEAC",
"qX c #F1B1AF",
"wX c #8DCAB5",
"eX c #B4C9BC",
"rX c #CEC8B5",
"tX c #EBC7B9",
"yX c #BCB0C6",
"uX c #F4B3C5",
"iX c #D2BDC4",
"pX c #B9CBC9",
"aX c #DBD8D5",
"sX c #CCCFCA",
"dX c #FAC7D8",
"fX c #F0D2CF",
"gX c #DAE2D7",
"hX c #C6E7D8",
"jX c #FCECD9",
"kX c #F9FCDC",
"lX c #EAE6D4",
"zX c #F8DAE3",
"xX c #EECCE7",
"cX c #D8F9EE",
"vX c #DBFEFA",
"bX c #D8E9E9",
"nX c #E8EBE8",
"mX c #F6EAE9",
"MX c #EAF1EA",
"NX c #FBF8EA",
"BX c #F9EAF5",
"VX c #ECFCF6",
"CX c #EDFEFC",
"ZX c #E6FDF9",
"AX c #F5F4F4",
"SX c #FDF4F4",
"DX c #FEFCF4",
"FX c #FFF5FD",
"GX c #F4FEFD",
"HX c #FDFDFD",
"JX c #F3F8F8",
"KX c #EFE7F2",
"LX c #DADEE1",
/* pixels */
"                          NXdX                                                                                                  ",
"                            /.                                                                                                  ",
"                        5XU.*X                                                                                                  ",
"                        U.r.                                                                                  *X                ",
"                      x.I.{.                                                                                  Q.*X              ",
"                    U.Y.r.                                                                                    '.H.              ",
"                  ~.T.x.oX                                          0.  a 5X                                    L.I.            ",
"                  J.x.!.^.                :X            Z     :X>X  ] E / '       |.                            K.Z.^.          ",
"                  =XY z.@X          w.}.$X7.           Xe [.fX,XP -.:.@.{ e.6X  / q                             ^.L.U.          ",
"                  (.<.z./.          _ 8Xp >.h 5X  4X'.1.} } 5.q 2.=.{ { O...3.b n.3.8Xw.] a                     XXT.Z.~.        ",
"                I.I.<.H.z.    |.0X*X>.q.4.i.U ) 5.=.$.+.a.O.#.h.$.O.O.O.+.$.( Y y.3.6 &.K.b                     oXK.p.~.        ",
"                  Y.Z.x.9.I.  2Xg q.<.U / s.{ | } :.;.{ { O.{ [ O.%.:.| { O.$.$.T =.$.O.E 6X0X                  T.a.<.6XOX      ",
"                  z.z.x.{ P.(.zX9 -.O.*.| t.R 2.*.R E { [ | *.*.O.| *.} @.#.+.{ h.[ c./ { i.]                   H.x.H.6XoX      ",
"                  9X,.T K. .P.9.W T @.R 2.&.2.T ;.{ p.F.+.O.#.@.O.} } } #.l.l.j.R #.{ P 5.{ 2.] ]. X).r ].    ^.9.,.,.U.        ",
"                    ~.` 8 x.~.6XI.>.2.| [ @.;.>.[ { a.B.b.S.g.O.#.| | O.+.i.d.k.5.{ +.} ) ) q 2.1.R O. .I g r.x.z.H.z.P.        ",
"                    8X,.5 Y >./.9X_ ! { ;.O.O.#.=.c.i.V.b.N.i.l.#.O.{ h.A.B.b.d.N.D.x.[ u.y.u.E *.O.@.I 9 x.Y.o.x.x.x.          ",
"                6.7X  ] o.! Y >.R ! } } } } @.@.i.d.d.k.M.b.N.N.u.u.@.u.l.D.b.M.d.a.#.@.| { { O.+.-.6 r.=X(.P.R ! 6.'.          ",
"            {. X| e ).! <.8 2 4  . .$.O.+.O.#.%.#.#.u.u.u.i.k.M.j.h.u.u.f.B.b.M.a.u.#.@.| | | | #.W e.=X=XH.o.! ! !.            ",
"            l 7 y.9 ) >.<.e.'.w.o. .&.%.p.#.O.$.@.@.*.@.O.O.h.j.M.l.i.i.B.B.k.k.p.u.@.@.| { | | @.T 9 7.7._ ` P >.              ",
"              ' O./ ) | o.9.oX^.( ..{ [ { { | *.@.@.:.| @.@.u.h.N.V.k.d.B.M.j.j.#.@.O.@.| } | X.T $.c.` 6 r _ L <.q             ",
"        F 0...{ [ ) L | +.[ 2.O.| | %.h.h.u.#.@.#.#.;.%.#.+.u.h.N.V.M.M.V.M.i.#.@.O.@.| @.| | | *.;.{ P ' 6.Y 9.' ` d           ",
"          4 ) =. .2.R O.;.R R { +.O.O.{ O.+.t.y.+.t.u.u.u.p.y.i.N.N.M.V.C.f.+.@.@.@.O.@.@.@.$.| [ { { 2.+XXX] >.p NX            ",
"        2X  ].I R ;.@.[ { W =.#.X.[ 9 9 L R X.,.u.#.#.#.#.u.t.+.M.V.M.M.B.j.#.| @.@.#.+.#.O.@.@.{ @.2.T T / T { e } k           ",
"        A l r.E / T { [ =.{ %.O.6 a [.5X5X Xw.9 u.#.#.#.:.#.#.#.k.V.l.M.B.f.u.$.@.@.#.u.+.#.$.&.;.R -.} R @.{ { O.b             ",
"    qX' R.~ | | U c.{ | { <.Y 4 >XNXVXFXFXvXgX X1 K.Z.+.:.h.+.c.h.m.F.l.M.F.u.t.*.m.T L _ 1 P R o.v.d.O.W -.[ O.R q.            ",
"  .X`.w r.E I { ..[ O.[ 2.Q 2 0XFXGXNX@X^.'.NXlX7X5 Z.y.R F.s.$.#.C.k.G.M.{ O.v.+.I w *XfX0X%Xy r L [ #.} E E { O.' &           ",
"  }.d ] L P } Q | R | @.X.6 |.FXGX0XT x.O.x.<.U.fX].T a.*.#.Z.=.i.V.j.G.i.h.v.T q |.NXGXZXGXmXZX Xp 6 X.#.[ W W 1.e             ",
"    y X.E =.[ ) O.W -.O.E t aXCXzX9.Y.a.a.<.@XXX*XjXy &.T.{ s.#.V.h.k.C.i.v.<.6 2XNX0X~.P.|.zXNXDX>Xp P y.h.} E ^ L I 3.w.      ",
"B ].  2 O.R ) } +.T -.[ ..k aXCX6X[ x.7.X 1XDXkXJ.mXrX .O.h.t.u.d.F.N.m.G.O.q 4XkX8.+.Z.D.[ &./.HXGX$X! s.N.+.-.R 2.{ 2.1.3 qX  ",
"  & [.q.R c.9 -.| R } $.! t mXCX8X8.J.` O B !.!.H.lXNX! +.h.u.d.d.F.C.N.V.%.'.SXoX9.U.<.` +XlX^.*XGXaXe.n.n.+.;.[ R T 0 p i S   ",
"    v e ~ R c.L E @.O.;.P 5 fXcXzXP. .8.U.J.9.p.oXDX7XP x.+.u.V.V.l.C.M.b.K.fXCX/.9.~.. x xXFX XQ.HXZX'.i.N.u.$.U 1.9 w.<X      ",
"  2X  R.1.R R { U { p.T =.Y k VXHXMXT.O.h.y.&.T.MXNXk ..a.h.@.G.l.G.b.k.C.[ gXvXv.a.I.2 = _ x.&.(.SXcX`.t.V.h.[ U R z.` w..X    ",
"  }.l q.L } -.T W X. .O.O.P y .XNXHXDXdX9X9XdXDXmX`.0 ;.i.M.G.l.F.n.V.M.A.z.E.NXqXe.R L.Y.i.{ a.xXZXrXr.n.a.E E R ( X.q jX      ",
"  mX).' ( E L 2.T ( Q E *.} T P A rXGXGXCXHXVXeXQ.Y | A.n.N.V.l.l.M.C.M.C.A.5.5XSXfX^.z.,.<.XXtXFXAX%X..t.*.T [ ) *.P 1.P ).DX  ",
"aXA 8X^ [ { -.9 y.g.x.t.i.k.f.A.a.z.W.'.[.XXT.2.y.y.n.C.C.N.C.k.M.k.C.M.m.C.d.T.aXBXHXzXuXuXHXCXMX4X7.[ } E E $.T { E ) Q g f   ",
"sXS 6 ! :.E P -.} #.l.S.C.f.i.k.G.s.y.b.N.g.s.N.S.S.C.N.N.B.V.V.G.k.l.j.b.C.s.O.u |.lXVXZXHXFXzX}.6.[ { / E [ } *.W R L ].<X    ",
"  DX[.' T +.T ) s U [ i.l.B.n.m.k.h.a.h.c.d.x.D.f.j.u.u.F.h.u.v.A.i.h.u.#.u.#.@.X.1.9 q `.[.0.6 w T O.-./ { { U I ~ 1.y }.      ",
"  |.g ^ U 4.E [ { | { 9 6 ` K.n.@.p.c.$.{ } #.i.@.@.| :.;.O.O.p.s.O.@.p.@./ *.#.| y.t.{ { U L p.R $.$./ R +.%.I X.Q p |.        ",
"  jXS 0.8 } [ E [ #.4.w . o X # 7 P a.Z.n.y.#.h.%.%.%.p.t.+.t.y.y.#.O.i.u.} } i.d.{ u.c.T R i.O.t.u.| [ { O.$.E +.[ w jX        ",
"    fXp ' E T  ...[ W 7 X < ; ; + O X X # 1 8 R +.t.y.s.s.n.f.a.j.h.u.s.d.#.#.n.t.v.| { g.Z.y.u.y.+.O.:.;.| T [ W E <.` ,X      ",
"  iX&X$XaXb Q R R E t.~ # o |.K K J C V M , ; : - & % & % % 4 % 6 7 7 q 8 Y Y ! _ q r 6 r 5 7 5 6 1 z z 6 q y./ R ^ 4 3 k       ",
"        mXt Q ....*.{ T X X ;X>X>X:X2X1XpX3XsXpXwXwXwX1X;X-X#XG D B B B B B N c c c F N B C D H D -XD o O ] ( 0 { ^ R.          ",
"        7X' W T ! [ E K.2 . -XHXgXaXsXsXJXLXaXGXHXHXHXHXJXFXHXHXHXHXHXHXHXFXFXHXHXHXVXGXGXVXCXCX    3X. # Z.P 1.{ Q p           ",
"        k Y T -.U { ) .. .. O V 3XMXHXHXHXHXJXAXAXHXHXHXGXGXHXHXGXGXGXGXGXGXGXGXFXHXHXBXHXHXHXnXFXKX- . 9.t.=.8 } T r ,X        ",
"        4 6.8 ( E ! W P p.1 . H : : :XHXAXHXHXKXHXFXBXSXHXHXHXHXHXHXHXHXHXHXHXHXGXKXHXMXHXGXAXGXHX:X. & c.8 ( ^ e R K.g         ",
"        n {.a ~ -.8 { } 4.! O BXAXH . FXHXSXaXHXGXHXGXHXGXJXVXGXSXSXSXHXHXHXHXDXDXHXmXSXHXSXFXNXZX: o L #.2.P { w ( U d aX      ",
"            `.7 U ( ..P ~ a.$ , GXJX+ 2XHX2Xo , J 3XnXHXHXHXHXHXHXGXHXHXHXGXHXHXnXHXDXHXHXHXeXB * . X 2./ T ) T W 0 h 0X        ",
"            rXw.0 X.P ) T -. .o pXVX, : BX, : :X@ @ @ , N H J &X1X:X:X-XJ J H G G @ 1XHXAXHX: Z f X <.2.T U ) Y ,.p             ",
"                ].! R R / E @.5 + GXaXX aX; aXDXDXNXaX2X:X}.H K C V N N N N C C :XK + HXNXpXC HX. T 2.P ..3.6 ^ r t             ",
"                R.P L -.U 8 O.2.# f HXV . J HXDXGXHXHXHXHXGXHXVXHXHXHXHXHXHXFXHXJXHX: 3XDXn bXm $ >.0 4.T 9 1.T t j             ",
"                I ( ) T P ( $.[ O.# m ZX- yXbXmXFXHXSXJXHXGXGXGXFXFXHXFXFXHXHXHXFXMXo LXKXJ   + ! R s 0 T E Q R F               ",
"              j w q ! ..[ P [ 3.+.Q # M cXKXBXGXGXGXGXGXGXGXJXMXGXGXGXZXVXVXVXVXVXHX> C #X#X$ ! a.=.0 I ;.I 0  .}.              ",
"              c %XE.0.2 ^  .=.5 0 { L.1 = eXGXBXHXHXHXHXHXHXFXFXHXHXHXGXGXHXHXHXGXGXhX+ O u o.@.R L E R P ' 4 1.j               ",
"                  k 3 S A T R ) Q ^ P x.X.# : pXnXJXGXDXGXSXFXFXHXHXHXHXFXCXAXKXFXbX#X. ` g.O.~ ~ 1.{ / Q e   4 l               ",
"                        A ! T } P ) ^ L &.P.5 O , D :XeXhXvXvXZXZXvXZXcXhXpX1X1X> # 6 T.R e 8 O.9 9 ( w 8 '   v |.              ",
"                        0.>.U P / L U ' Y P O.u.L q 2 $ & & - f > i - - & % X X 8 1.[ P 1.L ^ Y Q E 6 %Xt _                     ",
"                        l e ) R ) E | R Q 9 L ) T X.$.&.<.o.L ` [ [ { i.s.t.K.>.T U ' L 2.L E T ( ' _.  w.u                     ",
"                        b 2 ~ U ^ 5 8 ] P 2.E I ( L P T P E ( P R s.v.B.[ 0 P P 1.L ! ] 9 P ( ' y 2     3 3                     ",
"                        A i a y ] 3 v `.9 R R U =.P -.4.E [ | E e p.R a.E e O.R R L q _ I ^ a 2   0X                            ",
"                            _.j _.    $Xa ] P E 0 Y 6 5 e I U W w ( L =.E 8 R X.O.h  Xq ] $XF ).                                ",
"                                          4 ^ Q S       |.v k p P 3.9 e 0 ! 7 7 Q i   g t       ZXGX                            ",
"                                                              v `   w.v h 9 ].p w           GXJXGX  FX                          ",
"                                                                i         k  X                GX                                ",
"                                                                                                                                "
};
