/* XPM */
static char *_5667bd2784e42b3d50ebf538a292c6497yKtjlmrUYhP5hu[] = {
/* columns rows colors chars-per-pixel */
"64 64 213 2 ",
"   c None",
".  c #081609",
"X  c #0F0819",
"o  c #38320E",
"O  c #282913",
"+  c #2F1622",
"@  c #311723",
"#  c #4D3D0C",
"$  c #6B2F0F",
"%  c #662C0D",
"&  c #732D0C",
"*  c #6D340D",
"=  c #62320C",
"-  c #7C3C0D",
";  c #76360B",
":  c #6C2F14",
">  c #702F1A",
",  c #663215",
"<  c #6A3414",
"1  c #6F3813",
"2  c #663419",
"3  c #6A3419",
"4  c #693A1E",
"5  c #733513",
"6  c #7A3712",
"7  c #763912",
"8  c #7B3B14",
"9  c #723619",
"0  c #733A1B",
"q  c #7B3C1A",
"w  c #53420E",
"e  c #624D0C",
"r  c #734109",
"t  c #7C430B",
"y  c #7A5F0E",
"u  c #7E4215",
"i  c #7B5F11",
"p  c #7B5E18",
"a  c #853D0C",
"s  c #8A3C0D",
"d  c #813D07",
"f  c #913E09",
"g  c #853E13",
"h  c #8A3E13",
"j  c #843D1A",
"k  c #883B16",
"l  c #8E3F22",
"z  c #8A4107",
"x  c #894906",
"c  c #85420D",
"v  c #8A430E",
"b  c #8B490E",
"n  c #854609",
"m  c #91400A",
"M  c #8E500C",
"N  c #96540E",
"B  c #99550E",
"V  c #965607",
"C  c #864313",
"Z  c #8A4312",
"A  c #854914",
"S  c #8B4912",
"D  c #85431A",
"F  c #8B4419",
"G  c #8C4B1C",
"H  c #84491B",
"J  c #914513",
"K  c #924C13",
"L  c #914319",
"P  c #934D1D",
"I  c #8C5115",
"U  c #8B5615",
"Y  c #955212",
"T  c #9C5D13",
"R  c #955219",
"E  c #A15D10",
"W  c #9F610B",
"Q  c #A46D0C",
"!  c #A86709",
"~  c #B26A08",
"^  c #AE7808",
"/  c #B57C0B",
"(  c #BB7C0A",
")  c #B67808",
"_  c #AA6F12",
"`  c #B06E10",
"'  c #BB7810",
"]  c #B77414",
"[  c #884A22",
"{  c #904D20",
"}  c #8D592A",
"|  c #8B5429",
" . c #9A532A",
".. c #9A5A2A",
"X. c #955526",
"o. c #9A5D33",
"O. c #A25D3E",
"+. c #996538",
"@. c #A2613E",
"#. c #C17E08",
"$. c #A36C49",
"%. c #A57952",
"&. c #B17855",
"*. c #B87662",
"=. c #A98A0B",
"-. c #BD8006",
";. c #BB8009",
":. c #BD8A0A",
">. c #BF900A",
",. c #BC8012",
"<. c #BF8E10",
"1. c #C38D06",
"2. c #C98F07",
"3. c #C3840B",
"4. c #C48C0A",
"5. c #CB8E0B",
"6. c #C38107",
"7. c #D08F0E",
"8. c #CB9004",
"9. c #CF9E06",
"0. c #C7910D",
"q. c #CA920B",
"w. c #CF9C0B",
"e. c #C59104",
"r. c #D29C05",
"t. c #D29609",
"y. c #D59C0A",
"u. c #C38C12",
"i. c #CA8F10",
"p. c #C78818",
"a. c #CD9713",
"s. c #CBA30A",
"d. c #D6A205",
"f. c #DCA603",
"g. c #D6A00A",
"h. c #D9AC08",
"j. c #DAB805",
"k. c #CDA511",
"l. c #D7A314",
"z. c #E1AA01",
"x. c #E8AF05",
"c. c #E5B304",
"v. c #EBB504",
"b. c #E5BC05",
"n. c #EBBC05",
"m. c #E9B60A",
"M. c #E5BB0A",
"N. c #EBBC0B",
"B. c #E4B50B",
"V. c #F1BD05",
"C. c #F1BD0B",
"Z. c #F3B608",
"A. c #EBBC11",
"S. c #E4B711",
"D. c #F4BA12",
"F. c #E1A713",
"G. c #EEBF25",
"H. c #DFC507",
"J. c #E7C103",
"K. c #EDC205",
"L. c #EEC109",
"P. c #EBC10C",
"I. c #F5C503",
"U. c #FBC603",
"Y. c #F7C802",
"T. c #FBCB02",
"R. c #F3C30A",
"E. c #FBC609",
"W. c #FBCA0A",
"Q. c #F7D301",
"!. c #FDD102",
"~. c #FDD508",
"^. c #E6C218",
"/. c #FBCE14",
"(. c #FBCD18",
"). c #F8D11B",
"_. c #EDC222",
"`. c #EEC226",
"'. c #EDC429",
"]. c #FACB23",
"[. c #F9D229",
"{. c #E7D138",
"}. c #FDD534",
"|. c #FAD43A",
" X c #F8D53A",
".X c #B9865C",
"XX c #A98055",
"oX c #BA8360",
"OX c #C0885E",
"+X c #C29469",
"@X c #D09A70",
"#X c #CDA173",
"$X c #F1CF40",
"%X c #FFD646",
"&X c #FBD94A",
"*X c #EFCE55",
"=X c #FDDB54",
"-X c #FDDB5C",
";X c #F8D454",
":X c #FCDC63",
">X c #FBDF69",
",X c #F4DB66",
"<X c #FBE36F",
"1X c #F8E677",
"2X c #DCB88F",
"3X c #DBB992",
"4X c #E0C29A",
"5X c #FCE686",
"6X c #FCE698",
"7X c #EAD3A7",
"8X c #F8EAA0",
"9X c #FFECCB",
"0X c #FEFBF5",
/* pixels */
"          %.P L Z F Z F D Z Z F Z F Z Z Z F Z Z D F F C Z Z F Z Z F F C Z Z Z F Z D Z Z Z F Z D Z Z Z F C Z F Z H  .*.          ",
"      *XQ n Z c c C v v v C v C c v C C v C Z c S c C v Z c C C v C v c C Z C C v v S C c C v v S C C C S v C v Z Z - =.        ",
"    {.h.B s [ S S C C C C C C C C C S C C C C S C C C S S C C C C C S C C C C v C C C S S C C C C C C v C C S C v D C E S.$X    ",
"  *XM.l.P J F A Z S v S v S S b S S v v S S v S v Z S v S v v S S v S S v S S S S S v v S Z v S v S S S v Z S v x F Z P l.P.,X  ",
"  ^.D.a.1 ; - 0 7 7 7 7 7 7 7 7 7 7 7 7 7 7 7 7 7 7 7 7 7 7 7 7 7 7 7 7 7 7 7 7 7 7 7 7 7 7 7 7 7 7 7 7 7 7 7 7 1 8 6 r l.Z.^.  ",
"*XJ.R.4.9 0 * < < < < < < < < < < < < < < < < < < < < < < < < < < < < < < < < < < < < < < < < < < < < < < < < < 9 > 3 u s.V.S.,X",
"`.b.K.p.a u t c C C C g C g C C g C g g C C g g C g C C C C g g C c C g C g C C g g g g c C C g C g g g c g g g C 8 u A w.R.M.$X",
"A.M.P.a.n v A L Z v Z Z v Z Z S Z Z S Z S v Z Z S Z v Z Z Z v S Z Z Z Z Z Z S v Z S Z S Z Z Z Z S Z S Z S Z S Z v S Z S w.P.S.'.",
"n.n.n.a.c Z F F Z C Z C v Z C Z Z Z C Z Z C C Z C Z C Z C Z C Z C Z Z C C Z Z C Z C Z Z Z C Z C Z C Z Z Z Z C Z F Z C Z g.V.N._.",
"m.N.L.q.a C v c Z Z Z h Z Z h Z h Z Z Z h Z Z Z Z Z h Z Z Z h Z Z Z Z Z Z Z Z Z Z h Z Z Z Z h Z Z Z Z h Z Z Z Z v v c S g.C.b.`.",
"A.m.N.a.Z F Z s Z Z Z Z v Z C Z Z C s C v Z Z Z Z s Z Z Z v c Z h Z h c Z s C F Z Z C v v Z C Z v g Z Z C Z Z C h v Z J g.N.M.`.",
"N.b.n.q.Z Z Z Z Z Z Z Z Z Z Z Z Z Z S F Z Z Z Z F S Z Z Z Z Z F Z Z S Z Z S Z Z Z Z Z Z F Z Z Z Z Z Z Z Z Z Z Z Z Z Z F g.n.b.`.",
"N.N.L.0.c C c C C D C C C D C C C C D C D D C C C g C D C C D C C C C C D C C C g C C C C D C C C C D C C g D C u c t C g.R.b.`.",
"m.M.P.u.0 5 5 9 < 1 1 5 < 5 1 1 1 5 1 1 1 5 < 5 1 1 1 1 1 5 1 1 5 < 5 5 1 < 1 5 5 < 5 5 1 1 1 1 5 1 5 < 1 1 1 5 5 0 5 8 a.N.N.`.",
"N.n.P.0.5 5 5 5 5 5 5 5 5 5 5 5 5 5 5 5 5 5 5 5 5 5 5 5 5 5 5 5 0 5 5 5 5 5 5 5 0 5 5 5 5 5 5 5 5 5 5 5 5 5 5 5 5 1 5 - w.N.b.^.",
"M.n.P.0.a C c S h Z h v h h h F v h h Z h v Z h h Z h h h v h Z Z h h v Z Z h h Z h h Z h Z h h Z h Z Z Z h Z C v v C A g.R.v.`.",
"P.N.N.q.J S S J S S S S S S b S S v S S S S S S S b S Z S S v S S b S S S S S S S S S S S S S S S S v S S S S S S v S G g.N.N._.",
"R.R.I.x.8.q.4.i.8.8.8.5.0.8.0.2.8.8.5.8.4.8.2.2.5.8.4.u.7.a.>.5.5.1.q.q.u.8.8.u.2.2.2.2.2.8.5.8.5.2.2.2.8.8.5.2.i.8.0.8.v.Y.R.R.",
"/.Y.T.T.T.!.!.!.!.!.T.Q.Q.T.!.!.Q.!.T.!.!.!.Q.T.!.!.!.Q.T.Y.Q.T.T.!.Y.T.Q.Q.!.!.T.!.!.!.Q.T.Q.T.!.!.T.!.!.!.!.Q.!.T.!.T.T.T.W.W.",
"/.!.T.U.T.Y.Y.Y.Y.Y.Y.I.Y.Y.U.T.U.Y.Y.Y.Y.Y.Y.Y.I.R.L.P.V.V.C.m.N.D.V.L.M.R.I.I.Y.Y.Y.Y.Y.Y.Y.Y.I.Y.Y.Y.Y.Y.Y.I.W.I.I.Q.U.T.T./.",
"].U.Y.Y.T.T.Y.T.T.T.Q.T.T.T.T.T.T.T.T.T.T.T.T.T.T.T.K.M.m.v.v.J.J.M.v.N.A.K.T.T.T.T.T.T.T.T.T.T.T.Y.T.T.T.T.T.T.Y.T.Q.I.T.T.U.(.",
"|.W.U.U.4.( ( p.( ( ;.;.;.;.;.( ;.;.;.( ;.;.;.;.( -.r.P.M.C.N.H.J.N.V.v.N.r.-.;.;.;.;.;.;.;.;.;.;.-.;.( ;.;.( ( 3.6.) 3.U.U.E.}.",
"|.U.T.W.W h Z g g g g C C j g g C g g g g g g g h g ] M.b.C.h.y y d.C.M.N.] j j g g g g g g g g C g g k 8 g h g D s s T U.T.E.|.",
"=XU.T.T.! s C r S S c v v v v S v c v v S v v v F a / P.M.C.s.@ + s.N.M.N.( g Z S v v v v v v v v v S v n v S S ; c h Q I.U.U.=X",
":X~.U.E.^ k O.@XP F v Z Z Z Z Z D Z Z Z Z Z Z Z F d ] V.M.N.j.o o j.m.m.R./ v F Z C Z Z Z C Z Z C Z S Z Z F F P #X@.k Q E.U.U.-X",
">XU.E.W.) a $.4X..C F C F Z F C v Z c Z Z Z Z C Z a / J.v.D.P.w w J.D.N.n./ a C v Z Z Z Z Z Z Z F a F D C Z C  .4X$.g ) U.W.T.,X",
"  U.Y.Q.) d G } C S c c Z C C S Z F C Z Z C C C F k ) M.m.V.=.O O =.N.B.M.^ l Z Z Z F C C Z Z Z Z Z C S C C S S } G d ) Q.U.W.1X",
"  E.U.Q.3.S L c v K a v S v v J Z Z Z Z J Z Z Z b s ( M.A.P.e . . e P.A.N.( h v Z Z Z S Z Z h Z S S v J v d J J S S Z 3.Q.U.E.5X",
"  U.U.T.4.5 q 7 6 6 6 6 7 6 6 7 6 7 7 7 7 7 7 - u 5 T b.m.P.i X X p N.N.N.E ; 7 7 6 7 7 7 7 7 7 5 6 6 1 8 7 6 5 7 6 < :.T.U.W.6X",
"  T.U.!.>., 9 1 5 1 5 9 < 0 < < < 1 < < < 1 < < < 5 u h.K.v.k.y i s.n.n.h.8 0 3 < < < 1 < 1 < 1 1 < 3 * 0 9 < 5 1 5 3 <.T.T.W.8X",
"  W.Y.T.9.q g F D c 8 C g g a C g g g g g g g g g g 8 ^ n.R.A.b.j.D.V.N.^ 8 D u g g g g g g g 8 C a C D C - C C D g q y.T.U.U.  ",
"  W.U.T.d.S m s - v v v v v v S S F S Z F Z S F J Z b n ,.B.N.U.Y.A.S.;.x v F v S F Z S F Z Z F S v v S v v C a s f F d.!.W.W.  ",
"  ~.W.T.z.F S X...C C C v F c Z C Z C Z Z Z C C Z F D a A W 1.t.r.u.Q C c F F a C Z C Z Z C C Z g Z F a C Z C X.X.n F f.T.E.W.  ",
"  /.U.U.v.H D +X@XD C F Z Z g F v Z v v v v v v c Z g Z g - v V N A - g S g Z v v v v v Z v v v F h F Z Z S C @X+XA H x.T.U./.  ",
"  ].T.U.v.Y c &.OXC Z S Z Z F g Z Z F C C S C Z S C v S D C - - 6 a g D S S D S C Z D Z Z C S F g C c v c D u .XoXa H v.U.Y./.  ",
"  }.Y.T.v.N f g t H C c S v S Z F C C F C C F C Z Z C D F S F F F F F F C D Z Z F C S C C F C C Z S c S b C v C F f Y V.W.U.[.  ",
"   XU.T.V.B S F c Z s F Z c Z Z g Z Z Z Z Z Z Z F Z a Z Z Z Z Z h Z Z Z a Z C Z Z Z Z Z Z Z Z Z Z v c Z Z s J c C J Y V.W.U.}.  ",
"  %XU.W.N.Y * 9 6 5 6 q 5 0 5 6 - 5 6 5 6 7 7 7 7 5 0 7 6 5 ; 5 5 5 ; 6 6 7 6 5 7 6 5 6 7 7 6 5 6 5 0 5 q 5 6 5 0 * U K.W.U.|.  ",
"  =XU.U.R.T $ 1 < 3 3 , , 4 , < < < < 2 < < < 3 < , < < 3 < , < < < < < 3 < , , < < < < , < < < 3 < 2 3 3 3 : 9 < % U I.U.W.&X  ",
"  -XU.T.I.! C F S J s v J Z S J Z Z Z S Z L Z Z Z L Z Z Z v S S S S J Z Z Z S v Z J Z S Z F Z S J v v S v Z S v v D ! Y.T.U.=X  ",
"  >XV.T.T.~ S z 7 C C S s c Z C Z Z Z h C Z C Z Z Z Z C v Z Z Z Z h Z Z Z Z Z S C Z g Z F g Z h C Z v v c v A u z F ~ T.T.E.:X  ",
"    U.U.T.] j K .Xo.C Z Z Z h F Z Z Z F Z Z Z Z Z v Z Z Z Z Z Z Z C Z F F a C s Z Z Z F Z Z Z Z F C Z S Z g o.oXG j ` T.T.E.>X  ",
"    U.T.U./ k I 7X.X- L Z C Z h F F C g C C C F Z C C C C C C Z Z C C C F C C C C F C C Z C C Z h Z C v F 7 XX7XR k / T.W.U.1X  ",
"    U.T.!.:.h S } { F h S v c C v v v v v Z v v Z v Z v v v Z Z Z Z v Z v Z v v v v Z v Z v Z Z Z Z c J Z J [ } S C ( T.U.U.5X  ",
"    U.Y.T.3.g Z C h L h c A c D C Z C S Z Z C S C Z C Z Z C S C C Z Z C S C S C C Z S C C F S C C A C C h L h C C g :.T.U.U.    ",
"    U.Y.!.a.j D S Z g Z C C C h Z Z c Z g Z h C Z Z v C C v C Z c Z Z C Z C C s C v c C Z c c Z h C C C g Z s S u j 8.Q.Y.E.    ",
"    U.Y.Q.e.& * = < < 3 , , < 5 , < < < < < , < < , < , < $ < , < < < < < < , < : < < < < < , < : < < 2 , 2 < = < & 1.!.U.U.    ",
"  9XW.U.Q.r.8 u u 7 u 0 6 8 8 8 6 6 7 6 6 8 6 6 8 8 6 8 6 6 8 6 6 6 6 6 6 6 8 8 6 6 6 8 6 6 6 8 8 u 6 8 7 8 u j q 6 s.!.U.U.    ",
"    U.Y.!.f.F Z Z s v S Z Z Z C h Z h Z Z Z h Z Z h Z h Z h Z s h v h Z Z Z h Z Z Z h Z v h h Z C F a S S g v h D Z f.Q.Y.U.    ",
"    ~.U.T.z.J n F ..C C v Z Z Z Z Z v C C v C v v C Z Z C Z Z Z Z C Z Z Z Z C Z Z Z C Z Z C S Z S C v Z v C ..G Z J z.T.E.W.    ",
"    (.U.T.v.b C %.3X} C Z h c C C C C F F F C F C Z C C F Z S Z C C Z C C C Z Z C Z Z Z C C c C C Z s S u | 2X%.g K c.T.U.W.    ",
"    [.E.U.n.M h +.+XF C J J Z S S v Z S v Z Z Z Z Z Z v Z Z Z Z Z Z J Z Z Z v h Z Z Z S v v S F Z Z J L S G +X+.s I v.T.W.).    ",
"     XT.T.V.N g C C C h a h g g C g C c c g a C g g g g g g g g h g g g g g g g a g C g C g g g g g s g v C C D v M V.T.E.[.    ",
"     XU.T.V.V h D Z S v S S S b K K K K K K Y Y Y B B B Y B B B B B B N B B N N K Y K K K K K K b b b b v S Z Z Z B C.T.U.}.    ",
"    &XT.T.U.4.#.6.3.4.2.2.q.q.q.t.t.t.y.r.y.y.y.y.d.d.d.d.d.d.d.d.f.r.d.d.r.r.r.r.y.y.r.t.t.t.t.q.5.5.2.1.3.3.#.#.3.R.T.U.|.    ",
"    =XI.U.T.U.Y.T.Y.T.!.T.T.T.!.!.T.T.T.!.!.!.!.T.!.T.!.T.!.!.!.!.!.T.!.!.T.!.!.!.!.!.!.!.!.T.!.T.T.T.T.Y.T.U.T.Y.U.T.T.W.=X    ",
"  0X<XW.U.T.Q.T.U.T.T.U.T.Y.T.T.T.T.U.T.U.U.U.Y.T.T.U.T.T.U.U.T.U.Y.U.T.U.T.U.T.U.Y.U.T.Y.T.T.Y.T.T.U.!.Y.U.T.T.U.~.U.T.W.:X    ",
"  0X<XQ.!.!.!.Q.T.!.!.!.~.Q.!.!.!.!.!.T.!.Q.!.T.T.T.T.!.T.T.!.T.T.!.!.!.!.!.!.!.!.!.!.!.!.!.!.!.T.!.Q.!.!.!.~.Y.T.~.!.!.~.      ",
"                                                                                                                                ",
"                                                                                                                                ",
"                                                                                                                                ",
"                                                                                                                                ",
"                                                                                                                                ",
"                                                                                                                                "
};
